<svg width="448" height="305" viewBox="0 0 448 305" fill="none" xmlns="http://www.w3.org/2000/svg">
<path d="M28.27 55.09C27.23 55.09 26.29 54.86 25.45 54.4C24.62 53.94 23.965 53.305 23.485 52.495C23.015 51.675 22.78 50.76 22.78 49.75C22.78 48.74 23.015 47.83 23.485 47.02C23.965 46.2 24.625 45.56 25.465 45.1C26.305 44.64 27.245 44.41 28.285 44.41C29.065 44.41 29.785 44.54 30.445 44.8C31.105 45.06 31.665 45.44 32.125 45.94L31.42 46.645C30.6 45.815 29.565 45.4 28.315 45.4C27.485 45.4 26.73 45.59 26.05 45.97C25.37 46.35 24.835 46.87 24.445 47.53C24.065 48.19 23.875 48.93 23.875 49.75C23.875 50.57 24.065 51.31 24.445 51.97C24.835 52.63 25.37 53.15 26.05 53.53C26.73 53.91 27.485 54.1 28.315 54.1C29.575 54.1 30.61 53.68 31.42 52.84L32.125 53.545C31.665 54.045 31.1 54.43 30.43 54.7C29.77 54.96 29.05 55.09 28.27 55.09ZM34.4913 44.5H35.6013V54.04H41.4813V55H34.4913V44.5ZM47.7092 55.09C46.6692 55.09 45.7242 54.86 44.8742 54.4C44.0342 53.93 43.3742 53.29 42.8942 52.48C42.4242 51.67 42.1892 50.76 42.1892 49.75C42.1892 48.74 42.4242 47.83 42.8942 47.02C43.3742 46.21 44.0342 45.575 44.8742 45.115C45.7242 44.645 46.6692 44.41 47.7092 44.41C48.7492 44.41 49.6842 44.64 50.5142 45.1C51.3542 45.56 52.0142 46.2 52.4942 47.02C52.9742 47.83 53.2142 48.74 53.2142 49.75C53.2142 50.76 52.9742 51.675 52.4942 52.495C52.0142 53.305 51.3542 53.94 50.5142 54.4C49.6842 54.86 48.7492 55.09 47.7092 55.09ZM47.7092 54.1C48.5392 54.1 49.2892 53.915 49.9592 53.545C50.6292 53.165 51.1542 52.645 51.5342 51.985C51.9142 51.315 52.1042 50.57 52.1042 49.75C52.1042 48.93 51.9142 48.19 51.5342 47.53C51.1542 46.86 50.6292 46.34 49.9592 45.97C49.2892 45.59 48.5392 45.4 47.7092 45.4C46.8792 45.4 46.1242 45.59 45.4442 45.97C44.7742 46.34 44.2442 46.86 43.8542 47.53C43.4742 48.19 43.2842 48.93 43.2842 49.75C43.2842 50.57 43.4742 51.315 43.8542 51.985C44.2442 52.645 44.7742 53.165 45.4442 53.545C46.1242 53.915 46.8792 54.1 47.7092 54.1ZM64.4772 44.5V55H63.5622L56.8122 46.48V55H55.7022V44.5H56.6172L63.3822 53.02V44.5H64.4772ZM75.3293 54.04V55H67.9043V44.5H75.1043V45.46H69.0143V49.195H74.4443V50.14H69.0143V54.04H75.3293ZM81.0543 50.47H84.9843V51.4H81.0543V50.47ZM96.0776 55.09C95.0376 55.09 94.0976 54.86 93.2576 54.4C92.4276 53.94 91.7726 53.305 91.2926 52.495C90.8226 51.675 90.5876 50.76 90.5876 49.75C90.5876 48.74 90.8226 47.83 91.2926 47.02C91.7726 46.2 92.4326 45.56 93.2726 45.1C94.1126 44.64 95.0526 44.41 96.0926 44.41C96.8726 44.41 97.5926 44.54 98.2526 44.8C98.9126 45.06 99.4726 45.44 99.9326 45.94L99.2276 46.645C98.4076 45.815 97.3726 45.4 96.1226 45.4C95.2926 45.4 94.5376 45.59 93.8576 45.97C93.1776 46.35 92.6426 46.87 92.2526 47.53C91.8726 48.19 91.6826 48.93 91.6826 49.75C91.6826 50.57 91.8726 51.31 92.2526 51.97C92.6426 52.63 93.1776 53.15 93.8576 53.53C94.5376 53.91 95.2926 54.1 96.1226 54.1C97.3826 54.1 98.4176 53.68 99.2276 52.84L99.9326 53.545C99.4726 54.045 98.9076 54.43 98.2376 54.7C97.5776 54.96 96.8576 55.09 96.0776 55.09ZM104.717 47.05C105.747 47.05 106.537 47.31 107.087 47.83C107.637 48.34 107.912 49.1 107.912 50.11V55H106.892V53.77C106.652 54.18 106.297 54.5 105.827 54.73C105.367 54.96 104.817 55.075 104.177 55.075C103.297 55.075 102.597 54.865 102.077 54.445C101.557 54.025 101.297 53.47 101.297 52.78C101.297 52.11 101.537 51.57 102.017 51.16C102.507 50.75 103.282 50.545 104.342 50.545H106.847V50.065C106.847 49.385 106.657 48.87 106.277 48.52C105.897 48.16 105.342 47.98 104.612 47.98C104.112 47.98 103.632 48.065 103.172 48.235C102.712 48.395 102.317 48.62 101.987 48.91L101.507 48.115C101.907 47.775 102.387 47.515 102.947 47.335C103.507 47.145 104.097 47.05 104.717 47.05ZM104.342 54.235C104.942 54.235 105.457 54.1 105.887 53.83C106.317 53.55 106.637 53.15 106.847 52.63V51.34H104.372C103.022 51.34 102.347 51.81 102.347 52.75C102.347 53.21 102.522 53.575 102.872 53.845C103.222 54.105 103.712 54.235 104.342 54.235ZM114.959 54.52C114.759 54.7 114.509 54.84 114.209 54.94C113.919 55.03 113.614 55.075 113.294 55.075C112.554 55.075 111.984 54.875 111.584 54.475C111.184 54.075 110.984 53.51 110.984 52.78V48.01H109.574V47.11H110.984V45.385H112.049V47.11H114.449V48.01H112.049V52.72C112.049 53.19 112.164 53.55 112.394 53.8C112.634 54.04 112.974 54.16 113.414 54.16C113.634 54.16 113.844 54.125 114.044 54.055C114.254 53.985 114.434 53.885 114.584 53.755L114.959 54.52ZM123.49 51.385H116.89C116.95 52.205 117.265 52.87 117.835 53.38C118.405 53.88 119.125 54.13 119.995 54.13C120.485 54.13 120.935 54.045 121.345 53.875C121.755 53.695 122.11 53.435 122.41 53.095L123.01 53.785C122.66 54.205 122.22 54.525 121.69 54.745C121.17 54.965 120.595 55.075 119.965 55.075C119.155 55.075 118.435 54.905 117.805 54.565C117.185 54.215 116.7 53.735 116.35 53.125C116 52.515 115.825 51.825 115.825 51.055C115.825 50.285 115.99 49.595 116.32 48.985C116.66 48.375 117.12 47.9 117.7 47.56C118.29 47.22 118.95 47.05 119.68 47.05C120.41 47.05 121.065 47.22 121.645 47.56C122.225 47.9 122.68 48.375 123.01 48.985C123.34 49.585 123.505 50.275 123.505 51.055L123.49 51.385ZM119.68 47.965C118.92 47.965 118.28 48.21 117.76 48.7C117.25 49.18 116.96 49.81 116.89 50.59H122.485C122.415 49.81 122.12 49.18 121.6 48.7C121.09 48.21 120.45 47.965 119.68 47.965ZM132.978 47.11V54.04C132.978 55.38 132.648 56.37 131.988 57.01C131.338 57.66 130.353 57.985 129.033 57.985C128.303 57.985 127.608 57.875 126.948 57.655C126.298 57.445 125.768 57.15 125.358 56.77L125.898 55.96C126.278 56.3 126.738 56.565 127.278 56.755C127.828 56.945 128.403 57.04 129.003 57.04C130.003 57.04 130.738 56.805 131.208 56.335C131.678 55.875 131.913 55.155 131.913 54.175V53.17C131.583 53.67 131.148 54.05 130.608 54.31C130.078 54.57 129.488 54.7 128.838 54.7C128.098 54.7 127.423 54.54 126.813 54.22C126.213 53.89 125.738 53.435 125.388 52.855C125.048 52.265 124.878 51.6 124.878 50.86C124.878 50.12 125.048 49.46 125.388 48.88C125.738 48.3 126.213 47.85 126.813 47.53C127.413 47.21 128.088 47.05 128.838 47.05C129.508 47.05 130.113 47.185 130.653 47.455C131.193 47.725 131.628 48.115 131.958 48.625V47.11H132.978ZM128.943 53.755C129.513 53.755 130.028 53.635 130.488 53.395C130.948 53.145 131.303 52.8 131.553 52.36C131.813 51.92 131.943 51.42 131.943 50.86C131.943 50.3 131.813 49.805 131.553 49.375C131.303 48.935 130.948 48.595 130.488 48.355C130.038 48.105 129.523 47.98 128.943 47.98C128.373 47.98 127.858 48.1 127.398 48.34C126.948 48.58 126.593 48.92 126.333 49.36C126.083 49.8 125.958 50.3 125.958 50.86C125.958 51.42 126.083 51.92 126.333 52.36C126.593 52.8 126.948 53.145 127.398 53.395C127.858 53.635 128.373 53.755 128.943 53.755ZM139.181 55.075C138.421 55.075 137.736 54.905 137.126 54.565C136.516 54.215 136.036 53.735 135.686 53.125C135.336 52.515 135.161 51.825 135.161 51.055C135.161 50.285 135.336 49.595 135.686 48.985C136.036 48.375 136.516 47.9 137.126 47.56C137.736 47.22 138.421 47.05 139.181 47.05C139.941 47.05 140.626 47.22 141.236 47.56C141.846 47.9 142.321 48.375 142.661 48.985C143.011 49.595 143.186 50.285 143.186 51.055C143.186 51.825 143.011 52.515 142.661 53.125C142.321 53.735 141.846 54.215 141.236 54.565C140.626 54.905 139.941 55.075 139.181 55.075ZM139.181 54.13C139.741 54.13 140.241 54.005 140.681 53.755C141.131 53.495 141.481 53.13 141.731 52.66C141.981 52.19 142.106 51.655 142.106 51.055C142.106 50.455 141.981 49.92 141.731 49.45C141.481 48.98 141.131 48.62 140.681 48.37C140.241 48.11 139.741 47.98 139.181 47.98C138.621 47.98 138.116 48.11 137.666 48.37C137.226 48.62 136.876 48.98 136.616 49.45C136.366 49.92 136.241 50.455 136.241 51.055C136.241 51.655 136.366 52.19 136.616 52.66C136.876 53.13 137.226 53.495 137.666 53.755C138.116 54.005 138.621 54.13 139.181 54.13ZM146.38 48.655C146.63 48.125 147 47.725 147.49 47.455C147.99 47.185 148.605 47.05 149.335 47.05V48.085L149.08 48.07C148.25 48.07 147.6 48.325 147.13 48.835C146.66 49.345 146.425 50.06 146.425 50.98V55H145.36V47.11H146.38V48.655ZM151.263 47.11H152.328V55H151.263V47.11ZM151.803 45.385C151.583 45.385 151.398 45.31 151.248 45.16C151.098 45.01 151.023 44.83 151.023 44.62C151.023 44.42 151.098 44.245 151.248 44.095C151.398 43.945 151.583 43.87 151.803 43.87C152.023 43.87 152.208 43.945 152.358 44.095C152.508 44.235 152.583 44.405 152.583 44.605C152.583 44.825 152.508 45.01 152.358 45.16C152.208 45.31 152.023 45.385 151.803 45.385ZM162.162 51.385H155.562C155.622 52.205 155.937 52.87 156.507 53.38C157.077 53.88 157.797 54.13 158.667 54.13C159.157 54.13 159.607 54.045 160.017 53.875C160.427 53.695 160.782 53.435 161.082 53.095L161.682 53.785C161.332 54.205 160.892 54.525 160.362 54.745C159.842 54.965 159.267 55.075 158.637 55.075C157.827 55.075 157.107 54.905 156.477 54.565C155.857 54.215 155.372 53.735 155.022 53.125C154.672 52.515 154.497 51.825 154.497 51.055C154.497 50.285 154.662 49.595 154.992 48.985C155.332 48.375 155.792 47.9 156.372 47.56C156.962 47.22 157.622 47.05 158.352 47.05C159.082 47.05 159.737 47.22 160.317 47.56C160.897 47.9 161.352 48.375 161.682 48.985C162.012 49.585 162.177 50.275 162.177 51.055L162.162 51.385ZM158.352 47.965C157.592 47.965 156.952 48.21 156.432 48.7C155.922 49.18 155.632 49.81 155.562 50.59H161.157C161.087 49.81 160.792 49.18 160.272 48.7C159.762 48.21 159.122 47.965 158.352 47.965ZM166.459 55.075C165.819 55.075 165.204 54.985 164.614 54.805C164.034 54.615 163.579 54.38 163.249 54.1L163.729 53.26C164.059 53.52 164.474 53.735 164.974 53.905C165.474 54.065 165.994 54.145 166.534 54.145C167.254 54.145 167.784 54.035 168.124 53.815C168.474 53.585 168.649 53.265 168.649 52.855C168.649 52.565 168.554 52.34 168.364 52.18C168.174 52.01 167.934 51.885 167.644 51.805C167.354 51.715 166.969 51.63 166.489 51.55C165.849 51.43 165.334 51.31 164.944 51.19C164.554 51.06 164.219 50.845 163.939 50.545C163.669 50.245 163.534 49.83 163.534 49.3C163.534 48.64 163.809 48.1 164.359 47.68C164.909 47.26 165.674 47.05 166.654 47.05C167.164 47.05 167.674 47.12 168.184 47.26C168.694 47.39 169.114 47.565 169.444 47.785L168.979 48.64C168.329 48.19 167.554 47.965 166.654 47.965C165.974 47.965 165.459 48.085 165.109 48.325C164.769 48.565 164.599 48.88 164.599 49.27C164.599 49.57 164.694 49.81 164.884 49.99C165.084 50.17 165.329 50.305 165.619 50.395C165.909 50.475 166.309 50.56 166.819 50.65C167.449 50.77 167.954 50.89 168.334 51.01C168.714 51.13 169.039 51.335 169.309 51.625C169.579 51.915 169.714 52.315 169.714 52.825C169.714 53.515 169.424 54.065 168.844 54.475C168.274 54.875 167.479 55.075 166.459 55.075ZM175.024 50.47H178.954V51.4H175.024V50.47ZM193.973 55.09C192.933 55.09 191.993 54.86 191.153 54.4C190.323 53.94 189.668 53.305 189.188 52.495C188.718 51.675 188.483 50.76 188.483 49.75C188.483 48.74 188.718 47.83 189.188 47.02C189.668 46.2 190.328 45.56 191.168 45.1C192.008 44.64 192.948 44.41 193.988 44.41C194.768 44.41 195.488 44.54 196.148 44.8C196.808 45.06 197.368 45.44 197.828 45.94L197.123 46.645C196.303 45.815 195.268 45.4 194.018 45.4C193.188 45.4 192.433 45.59 191.753 45.97C191.073 46.35 190.538 46.87 190.148 47.53C189.768 48.19 189.578 48.93 189.578 49.75C189.578 50.57 189.768 51.31 190.148 51.97C190.538 52.63 191.073 53.15 191.753 53.53C192.433 53.91 193.188 54.1 194.018 54.1C195.278 54.1 196.313 53.68 197.123 52.84L197.828 53.545C197.368 54.045 196.803 54.43 196.133 54.7C195.473 54.96 194.753 55.09 193.973 55.09ZM202.612 47.05C203.642 47.05 204.432 47.31 204.982 47.83C205.532 48.34 205.807 49.1 205.807 50.11V55H204.787V53.77C204.547 54.18 204.192 54.5 203.722 54.73C203.262 54.96 202.712 55.075 202.072 55.075C201.192 55.075 200.492 54.865 199.972 54.445C199.452 54.025 199.192 53.47 199.192 52.78C199.192 52.11 199.432 51.57 199.912 51.16C200.402 50.75 201.177 50.545 202.237 50.545H204.742V50.065C204.742 49.385 204.552 48.87 204.172 48.52C203.792 48.16 203.237 47.98 202.507 47.98C202.007 47.98 201.527 48.065 201.067 48.235C200.607 48.395 200.212 48.62 199.882 48.91L199.402 48.115C199.802 47.775 200.282 47.515 200.842 47.335C201.402 47.145 201.992 47.05 202.612 47.05ZM202.237 54.235C202.837 54.235 203.352 54.1 203.782 53.83C204.212 53.55 204.532 53.15 204.742 52.63V51.34H202.267C200.917 51.34 200.242 51.81 200.242 52.75C200.242 53.21 200.417 53.575 200.767 53.845C201.117 54.105 201.607 54.235 202.237 54.235ZM212.855 54.52C212.655 54.7 212.405 54.84 212.105 54.94C211.815 55.03 211.51 55.075 211.19 55.075C210.45 55.075 209.88 54.875 209.48 54.475C209.08 54.075 208.88 53.51 208.88 52.78V48.01H207.47V47.11H208.88V45.385H209.945V47.11H212.345V48.01H209.945V52.72C209.945 53.19 210.06 53.55 210.29 53.8C210.53 54.04 210.87 54.16 211.31 54.16C211.53 54.16 211.74 54.125 211.94 54.055C212.15 53.985 212.33 53.885 212.48 53.755L212.855 54.52ZM221.385 51.385H214.785C214.845 52.205 215.16 52.87 215.73 53.38C216.3 53.88 217.02 54.13 217.89 54.13C218.38 54.13 218.83 54.045 219.24 53.875C219.65 53.695 220.005 53.435 220.305 53.095L220.905 53.785C220.555 54.205 220.115 54.525 219.585 54.745C219.065 54.965 218.49 55.075 217.86 55.075C217.05 55.075 216.33 54.905 215.7 54.565C215.08 54.215 214.595 53.735 214.245 53.125C213.895 52.515 213.72 51.825 213.72 51.055C213.72 50.285 213.885 49.595 214.215 48.985C214.555 48.375 215.015 47.9 215.595 47.56C216.185 47.22 216.845 47.05 217.575 47.05C218.305 47.05 218.96 47.22 219.54 47.56C220.12 47.9 220.575 48.375 220.905 48.985C221.235 49.585 221.4 50.275 221.4 51.055L221.385 51.385ZM217.575 47.965C216.815 47.965 216.175 48.21 215.655 48.7C215.145 49.18 214.855 49.81 214.785 50.59H220.38C220.31 49.81 220.015 49.18 219.495 48.7C218.985 48.21 218.345 47.965 217.575 47.965ZM230.873 47.11V54.04C230.873 55.38 230.543 56.37 229.883 57.01C229.233 57.66 228.248 57.985 226.928 57.985C226.198 57.985 225.503 57.875 224.843 57.655C224.193 57.445 223.663 57.15 223.253 56.77L223.793 55.96C224.173 56.3 224.633 56.565 225.173 56.755C225.723 56.945 226.298 57.04 226.898 57.04C227.898 57.04 228.633 56.805 229.103 56.335C229.573 55.875 229.808 55.155 229.808 54.175V53.17C229.478 53.67 229.043 54.05 228.503 54.31C227.973 54.57 227.383 54.7 226.733 54.7C225.993 54.7 225.318 54.54 224.708 54.22C224.108 53.89 223.633 53.435 223.283 52.855C222.943 52.265 222.773 51.6 222.773 50.86C222.773 50.12 222.943 49.46 223.283 48.88C223.633 48.3 224.108 47.85 224.708 47.53C225.308 47.21 225.983 47.05 226.733 47.05C227.403 47.05 228.008 47.185 228.548 47.455C229.088 47.725 229.523 48.115 229.853 48.625V47.11H230.873ZM226.838 53.755C227.408 53.755 227.923 53.635 228.383 53.395C228.843 53.145 229.198 52.8 229.448 52.36C229.708 51.92 229.838 51.42 229.838 50.86C229.838 50.3 229.708 49.805 229.448 49.375C229.198 48.935 228.843 48.595 228.383 48.355C227.933 48.105 227.418 47.98 226.838 47.98C226.268 47.98 225.753 48.1 225.293 48.34C224.843 48.58 224.488 48.92 224.228 49.36C223.978 49.8 223.853 50.3 223.853 50.86C223.853 51.42 223.978 51.92 224.228 52.36C224.488 52.8 224.843 53.145 225.293 53.395C225.753 53.635 226.268 53.755 226.838 53.755ZM237.076 55.075C236.316 55.075 235.631 54.905 235.021 54.565C234.411 54.215 233.931 53.735 233.581 53.125C233.231 52.515 233.056 51.825 233.056 51.055C233.056 50.285 233.231 49.595 233.581 48.985C233.931 48.375 234.411 47.9 235.021 47.56C235.631 47.22 236.316 47.05 237.076 47.05C237.836 47.05 238.521 47.22 239.131 47.56C239.741 47.9 240.216 48.375 240.556 48.985C240.906 49.595 241.081 50.285 241.081 51.055C241.081 51.825 240.906 52.515 240.556 53.125C240.216 53.735 239.741 54.215 239.131 54.565C238.521 54.905 237.836 55.075 237.076 55.075ZM237.076 54.13C237.636 54.13 238.136 54.005 238.576 53.755C239.026 53.495 239.376 53.13 239.626 52.66C239.876 52.19 240.001 51.655 240.001 51.055C240.001 50.455 239.876 49.92 239.626 49.45C239.376 48.98 239.026 48.62 238.576 48.37C238.136 48.11 237.636 47.98 237.076 47.98C236.516 47.98 236.011 48.11 235.561 48.37C235.121 48.62 234.771 48.98 234.511 49.45C234.261 49.92 234.136 50.455 234.136 51.055C234.136 51.655 234.261 52.19 234.511 52.66C234.771 53.13 235.121 53.495 235.561 53.755C236.011 54.005 236.516 54.13 237.076 54.13ZM244.276 48.655C244.526 48.125 244.896 47.725 245.386 47.455C245.886 47.185 246.501 47.05 247.231 47.05V48.085L246.976 48.07C246.146 48.07 245.496 48.325 245.026 48.835C244.556 49.345 244.321 50.06 244.321 50.98V55H243.256V47.11H244.276V48.655ZM249.159 47.11H250.224V55H249.159V47.11ZM249.699 45.385C249.479 45.385 249.294 45.31 249.144 45.16C248.994 45.01 248.919 44.83 248.919 44.62C248.919 44.42 248.994 44.245 249.144 44.095C249.294 43.945 249.479 43.87 249.699 43.87C249.919 43.87 250.104 43.945 250.254 44.095C250.404 44.235 250.479 44.405 250.479 44.605C250.479 44.825 250.404 45.01 250.254 45.16C250.104 45.31 249.919 45.385 249.699 45.385ZM260.057 51.385H253.457C253.517 52.205 253.832 52.87 254.402 53.38C254.972 53.88 255.692 54.13 256.562 54.13C257.052 54.13 257.502 54.045 257.912 53.875C258.322 53.695 258.677 53.435 258.977 53.095L259.577 53.785C259.227 54.205 258.787 54.525 258.257 54.745C257.737 54.965 257.162 55.075 256.532 55.075C255.722 55.075 255.002 54.905 254.372 54.565C253.752 54.215 253.267 53.735 252.917 53.125C252.567 52.515 252.392 51.825 252.392 51.055C252.392 50.285 252.557 49.595 252.887 48.985C253.227 48.375 253.687 47.9 254.267 47.56C254.857 47.22 255.517 47.05 256.247 47.05C256.977 47.05 257.632 47.22 258.212 47.56C258.792 47.9 259.247 48.375 259.577 48.985C259.907 49.585 260.072 50.275 260.072 51.055L260.057 51.385ZM256.247 47.965C255.487 47.965 254.847 48.21 254.327 48.7C253.817 49.18 253.527 49.81 253.457 50.59H259.052C258.982 49.81 258.687 49.18 258.167 48.7C257.657 48.21 257.017 47.965 256.247 47.965ZM264.355 55.075C263.715 55.075 263.1 54.985 262.51 54.805C261.93 54.615 261.475 54.38 261.145 54.1L261.625 53.26C261.955 53.52 262.37 53.735 262.87 53.905C263.37 54.065 263.89 54.145 264.43 54.145C265.15 54.145 265.68 54.035 266.02 53.815C266.37 53.585 266.545 53.265 266.545 52.855C266.545 52.565 266.45 52.34 266.26 52.18C266.07 52.01 265.83 51.885 265.54 51.805C265.25 51.715 264.865 51.63 264.385 51.55C263.745 51.43 263.23 51.31 262.84 51.19C262.45 51.06 262.115 50.845 261.835 50.545C261.565 50.245 261.43 49.83 261.43 49.3C261.43 48.64 261.705 48.1 262.255 47.68C262.805 47.26 263.57 47.05 264.55 47.05C265.06 47.05 265.57 47.12 266.08 47.26C266.59 47.39 267.01 47.565 267.34 47.785L266.875 48.64C266.225 48.19 265.45 47.965 264.55 47.965C263.87 47.965 263.355 48.085 263.005 48.325C262.665 48.565 262.495 48.88 262.495 49.27C262.495 49.57 262.59 49.81 262.78 49.99C262.98 50.17 263.225 50.305 263.515 50.395C263.805 50.475 264.205 50.56 264.715 50.65C265.345 50.77 265.85 50.89 266.23 51.01C266.61 51.13 266.935 51.335 267.205 51.625C267.475 51.915 267.61 52.315 267.61 52.825C267.61 53.515 267.32 54.065 266.74 54.475C266.17 54.875 265.375 55.075 264.355 55.075ZM275.77 45.46H272.08V44.5H280.57V45.46H276.88V55H275.77V45.46ZM281.913 47.11H282.978V55H281.913V47.11ZM282.453 45.385C282.233 45.385 282.048 45.31 281.898 45.16C281.748 45.01 281.673 44.83 281.673 44.62C281.673 44.42 281.748 44.245 281.898 44.095C282.048 43.945 282.233 43.87 282.453 43.87C282.673 43.87 282.858 43.945 283.008 44.095C283.158 44.235 283.233 44.405 283.233 44.605C283.233 44.825 283.158 45.01 283.008 45.16C282.858 45.31 282.673 45.385 282.453 45.385ZM290.096 54.52C289.896 54.7 289.646 54.84 289.346 54.94C289.056 55.03 288.751 55.075 288.431 55.075C287.691 55.075 287.121 54.875 286.721 54.475C286.321 54.075 286.121 53.51 286.121 52.78V48.01H284.711V47.11H286.121V45.385H287.186V47.11H289.586V48.01H287.186V52.72C287.186 53.19 287.301 53.55 287.531 53.8C287.771 54.04 288.111 54.16 288.551 54.16C288.771 54.16 288.981 54.125 289.181 54.055C289.391 53.985 289.571 53.885 289.721 53.755L290.096 54.52ZM292.035 43.87H293.1V55H292.035V43.87ZM302.933 51.385H296.333C296.393 52.205 296.708 52.87 297.278 53.38C297.848 53.88 298.568 54.13 299.438 54.13C299.928 54.13 300.378 54.045 300.788 53.875C301.198 53.695 301.553 53.435 301.853 53.095L302.453 53.785C302.103 54.205 301.663 54.525 301.133 54.745C300.613 54.965 300.038 55.075 299.408 55.075C298.598 55.075 297.878 54.905 297.248 54.565C296.628 54.215 296.143 53.735 295.793 53.125C295.443 52.515 295.268 51.825 295.268 51.055C295.268 50.285 295.433 49.595 295.763 48.985C296.103 48.375 296.563 47.9 297.143 47.56C297.733 47.22 298.393 47.05 299.123 47.05C299.853 47.05 300.508 47.22 301.088 47.56C301.668 47.9 302.123 48.375 302.453 48.985C302.783 49.585 302.948 50.275 302.948 51.055L302.933 51.385ZM299.123 47.965C298.363 47.965 297.723 48.21 297.203 48.7C296.693 49.18 296.403 49.81 296.333 50.59H301.928C301.858 49.81 301.563 49.18 301.043 48.7C300.533 48.21 299.893 47.965 299.123 47.965ZM307.231 55.075C306.591 55.075 305.976 54.985 305.386 54.805C304.806 54.615 304.351 54.38 304.021 54.1L304.501 53.26C304.831 53.52 305.246 53.735 305.746 53.905C306.246 54.065 306.766 54.145 307.306 54.145C308.026 54.145 308.556 54.035 308.896 53.815C309.246 53.585 309.421 53.265 309.421 52.855C309.421 52.565 309.326 52.34 309.136 52.18C308.946 52.01 308.706 51.885 308.416 51.805C308.126 51.715 307.741 51.63 307.261 51.55C306.621 51.43 306.106 51.31 305.716 51.19C305.326 51.06 304.991 50.845 304.711 50.545C304.441 50.245 304.306 49.83 304.306 49.3C304.306 48.64 304.581 48.1 305.131 47.68C305.681 47.26 306.446 47.05 307.426 47.05C307.936 47.05 308.446 47.12 308.956 47.26C309.466 47.39 309.886 47.565 310.216 47.785L309.751 48.64C309.101 48.19 308.326 47.965 307.426 47.965C306.746 47.965 306.231 48.085 305.881 48.325C305.541 48.565 305.371 48.88 305.371 49.27C305.371 49.57 305.466 49.81 305.656 49.99C305.856 50.17 306.101 50.305 306.391 50.395C306.681 50.475 307.081 50.56 307.591 50.65C308.221 50.77 308.726 50.89 309.106 51.01C309.486 51.13 309.811 51.335 310.081 51.625C310.351 51.915 310.486 52.315 310.486 52.825C310.486 53.515 310.196 54.065 309.616 54.475C309.046 54.875 308.251 55.075 307.231 55.075Z" fill="#314760"/>
<path d="M28.27 55.09C27.23 55.09 26.29 54.86 25.45 54.4C24.62 53.94 23.965 53.305 23.485 52.495C23.015 51.675 22.78 50.76 22.78 49.75C22.78 48.74 23.015 47.83 23.485 47.02C23.965 46.2 24.625 45.56 25.465 45.1C26.305 44.64 27.245 44.41 28.285 44.41C29.065 44.41 29.785 44.54 30.445 44.8C31.105 45.06 31.665 45.44 32.125 45.94L31.42 46.645C30.6 45.815 29.565 45.4 28.315 45.4C27.485 45.4 26.73 45.59 26.05 45.97C25.37 46.35 24.835 46.87 24.445 47.53C24.065 48.19 23.875 48.93 23.875 49.75C23.875 50.57 24.065 51.31 24.445 51.97C24.835 52.63 25.37 53.15 26.05 53.53C26.73 53.91 27.485 54.1 28.315 54.1C29.575 54.1 30.61 53.68 31.42 52.84L32.125 53.545C31.665 54.045 31.1 54.43 30.43 54.7C29.77 54.96 29.05 55.09 28.27 55.09ZM34.4913 44.5H35.6013V54.04H41.4813V55H34.4913V44.5ZM47.7092 55.09C46.6692 55.09 45.7242 54.86 44.8742 54.4C44.0342 53.93 43.3742 53.29 42.8942 52.48C42.4242 51.67 42.1892 50.76 42.1892 49.75C42.1892 48.74 42.4242 47.83 42.8942 47.02C43.3742 46.21 44.0342 45.575 44.8742 45.115C45.7242 44.645 46.6692 44.41 47.7092 44.41C48.7492 44.41 49.6842 44.64 50.5142 45.1C51.3542 45.56 52.0142 46.2 52.4942 47.02C52.9742 47.83 53.2142 48.74 53.2142 49.75C53.2142 50.76 52.9742 51.675 52.4942 52.495C52.0142 53.305 51.3542 53.94 50.5142 54.4C49.6842 54.86 48.7492 55.09 47.7092 55.09ZM47.7092 54.1C48.5392 54.1 49.2892 53.915 49.9592 53.545C50.6292 53.165 51.1542 52.645 51.5342 51.985C51.9142 51.315 52.1042 50.57 52.1042 49.75C52.1042 48.93 51.9142 48.19 51.5342 47.53C51.1542 46.86 50.6292 46.34 49.9592 45.97C49.2892 45.59 48.5392 45.4 47.7092 45.4C46.8792 45.4 46.1242 45.59 45.4442 45.97C44.7742 46.34 44.2442 46.86 43.8542 47.53C43.4742 48.19 43.2842 48.93 43.2842 49.75C43.2842 50.57 43.4742 51.315 43.8542 51.985C44.2442 52.645 44.7742 53.165 45.4442 53.545C46.1242 53.915 46.8792 54.1 47.7092 54.1ZM64.4772 44.5V55H63.5622L56.8122 46.48V55H55.7022V44.5H56.6172L63.3822 53.02V44.5H64.4772ZM75.3293 54.04V55H67.9043V44.5H75.1043V45.46H69.0143V49.195H74.4443V50.14H69.0143V54.04H75.3293ZM81.0543 50.47H84.9843V51.4H81.0543V50.47ZM96.0776 55.09C95.0376 55.09 94.0976 54.86 93.2576 54.4C92.4276 53.94 91.7726 53.305 91.2926 52.495C90.8226 51.675 90.5876 50.76 90.5876 49.75C90.5876 48.74 90.8226 47.83 91.2926 47.02C91.7726 46.2 92.4326 45.56 93.2726 45.1C94.1126 44.64 95.0526 44.41 96.0926 44.41C96.8726 44.41 97.5926 44.54 98.2526 44.8C98.9126 45.06 99.4726 45.44 99.9326 45.94L99.2276 46.645C98.4076 45.815 97.3726 45.4 96.1226 45.4C95.2926 45.4 94.5376 45.59 93.8576 45.97C93.1776 46.35 92.6426 46.87 92.2526 47.53C91.8726 48.19 91.6826 48.93 91.6826 49.75C91.6826 50.57 91.8726 51.31 92.2526 51.97C92.6426 52.63 93.1776 53.15 93.8576 53.53C94.5376 53.91 95.2926 54.1 96.1226 54.1C97.3826 54.1 98.4176 53.68 99.2276 52.84L99.9326 53.545C99.4726 54.045 98.9076 54.43 98.2376 54.7C97.5776 54.96 96.8576 55.09 96.0776 55.09ZM104.717 47.05C105.747 47.05 106.537 47.31 107.087 47.83C107.637 48.34 107.912 49.1 107.912 50.11V55H106.892V53.77C106.652 54.18 106.297 54.5 105.827 54.73C105.367 54.96 104.817 55.075 104.177 55.075C103.297 55.075 102.597 54.865 102.077 54.445C101.557 54.025 101.297 53.47 101.297 52.78C101.297 52.11 101.537 51.57 102.017 51.16C102.507 50.75 103.282 50.545 104.342 50.545H106.847V50.065C106.847 49.385 106.657 48.87 106.277 48.52C105.897 48.16 105.342 47.98 104.612 47.98C104.112 47.98 103.632 48.065 103.172 48.235C102.712 48.395 102.317 48.62 101.987 48.91L101.507 48.115C101.907 47.775 102.387 47.515 102.947 47.335C103.507 47.145 104.097 47.05 104.717 47.05ZM104.342 54.235C104.942 54.235 105.457 54.1 105.887 53.83C106.317 53.55 106.637 53.15 106.847 52.63V51.34H104.372C103.022 51.34 102.347 51.81 102.347 52.75C102.347 53.21 102.522 53.575 102.872 53.845C103.222 54.105 103.712 54.235 104.342 54.235ZM114.959 54.52C114.759 54.7 114.509 54.84 114.209 54.94C113.919 55.03 113.614 55.075 113.294 55.075C112.554 55.075 111.984 54.875 111.584 54.475C111.184 54.075 110.984 53.51 110.984 52.78V48.01H109.574V47.11H110.984V45.385H112.049V47.11H114.449V48.01H112.049V52.72C112.049 53.19 112.164 53.55 112.394 53.8C112.634 54.04 112.974 54.16 113.414 54.16C113.634 54.16 113.844 54.125 114.044 54.055C114.254 53.985 114.434 53.885 114.584 53.755L114.959 54.52ZM123.49 51.385H116.89C116.95 52.205 117.265 52.87 117.835 53.38C118.405 53.88 119.125 54.13 119.995 54.13C120.485 54.13 120.935 54.045 121.345 53.875C121.755 53.695 122.11 53.435 122.41 53.095L123.01 53.785C122.66 54.205 122.22 54.525 121.69 54.745C121.17 54.965 120.595 55.075 119.965 55.075C119.155 55.075 118.435 54.905 117.805 54.565C117.185 54.215 116.7 53.735 116.35 53.125C116 52.515 115.825 51.825 115.825 51.055C115.825 50.285 115.99 49.595 116.32 48.985C116.66 48.375 117.12 47.9 117.7 47.56C118.29 47.22 118.95 47.05 119.68 47.05C120.41 47.05 121.065 47.22 121.645 47.56C122.225 47.9 122.68 48.375 123.01 48.985C123.34 49.585 123.505 50.275 123.505 51.055L123.49 51.385ZM119.68 47.965C118.92 47.965 118.28 48.21 117.76 48.7C117.25 49.18 116.96 49.81 116.89 50.59H122.485C122.415 49.81 122.12 49.18 121.6 48.7C121.09 48.21 120.45 47.965 119.68 47.965ZM132.978 47.11V54.04C132.978 55.38 132.648 56.37 131.988 57.01C131.338 57.66 130.353 57.985 129.033 57.985C128.303 57.985 127.608 57.875 126.948 57.655C126.298 57.445 125.768 57.15 125.358 56.77L125.898 55.96C126.278 56.3 126.738 56.565 127.278 56.755C127.828 56.945 128.403 57.04 129.003 57.04C130.003 57.04 130.738 56.805 131.208 56.335C131.678 55.875 131.913 55.155 131.913 54.175V53.17C131.583 53.67 131.148 54.05 130.608 54.31C130.078 54.57 129.488 54.7 128.838 54.7C128.098 54.7 127.423 54.54 126.813 54.22C126.213 53.89 125.738 53.435 125.388 52.855C125.048 52.265 124.878 51.6 124.878 50.86C124.878 50.12 125.048 49.46 125.388 48.88C125.738 48.3 126.213 47.85 126.813 47.53C127.413 47.21 128.088 47.05 128.838 47.05C129.508 47.05 130.113 47.185 130.653 47.455C131.193 47.725 131.628 48.115 131.958 48.625V47.11H132.978ZM128.943 53.755C129.513 53.755 130.028 53.635 130.488 53.395C130.948 53.145 131.303 52.8 131.553 52.36C131.813 51.92 131.943 51.42 131.943 50.86C131.943 50.3 131.813 49.805 131.553 49.375C131.303 48.935 130.948 48.595 130.488 48.355C130.038 48.105 129.523 47.98 128.943 47.98C128.373 47.98 127.858 48.1 127.398 48.34C126.948 48.58 126.593 48.92 126.333 49.36C126.083 49.8 125.958 50.3 125.958 50.86C125.958 51.42 126.083 51.92 126.333 52.36C126.593 52.8 126.948 53.145 127.398 53.395C127.858 53.635 128.373 53.755 128.943 53.755ZM139.181 55.075C138.421 55.075 137.736 54.905 137.126 54.565C136.516 54.215 136.036 53.735 135.686 53.125C135.336 52.515 135.161 51.825 135.161 51.055C135.161 50.285 135.336 49.595 135.686 48.985C136.036 48.375 136.516 47.9 137.126 47.56C137.736 47.22 138.421 47.05 139.181 47.05C139.941 47.05 140.626 47.22 141.236 47.56C141.846 47.9 142.321 48.375 142.661 48.985C143.011 49.595 143.186 50.285 143.186 51.055C143.186 51.825 143.011 52.515 142.661 53.125C142.321 53.735 141.846 54.215 141.236 54.565C140.626 54.905 139.941 55.075 139.181 55.075ZM139.181 54.13C139.741 54.13 140.241 54.005 140.681 53.755C141.131 53.495 141.481 53.13 141.731 52.66C141.981 52.19 142.106 51.655 142.106 51.055C142.106 50.455 141.981 49.92 141.731 49.45C141.481 48.98 141.131 48.62 140.681 48.37C140.241 48.11 139.741 47.98 139.181 47.98C138.621 47.98 138.116 48.11 137.666 48.37C137.226 48.62 136.876 48.98 136.616 49.45C136.366 49.92 136.241 50.455 136.241 51.055C136.241 51.655 136.366 52.19 136.616 52.66C136.876 53.13 137.226 53.495 137.666 53.755C138.116 54.005 138.621 54.13 139.181 54.13ZM146.38 48.655C146.63 48.125 147 47.725 147.49 47.455C147.99 47.185 148.605 47.05 149.335 47.05V48.085L149.08 48.07C148.25 48.07 147.6 48.325 147.13 48.835C146.66 49.345 146.425 50.06 146.425 50.98V55H145.36V47.11H146.38V48.655ZM151.263 47.11H152.328V55H151.263V47.11ZM151.803 45.385C151.583 45.385 151.398 45.31 151.248 45.16C151.098 45.01 151.023 44.83 151.023 44.62C151.023 44.42 151.098 44.245 151.248 44.095C151.398 43.945 151.583 43.87 151.803 43.87C152.023 43.87 152.208 43.945 152.358 44.095C152.508 44.235 152.583 44.405 152.583 44.605C152.583 44.825 152.508 45.01 152.358 45.16C152.208 45.31 152.023 45.385 151.803 45.385ZM162.162 51.385H155.562C155.622 52.205 155.937 52.87 156.507 53.38C157.077 53.88 157.797 54.13 158.667 54.13C159.157 54.13 159.607 54.045 160.017 53.875C160.427 53.695 160.782 53.435 161.082 53.095L161.682 53.785C161.332 54.205 160.892 54.525 160.362 54.745C159.842 54.965 159.267 55.075 158.637 55.075C157.827 55.075 157.107 54.905 156.477 54.565C155.857 54.215 155.372 53.735 155.022 53.125C154.672 52.515 154.497 51.825 154.497 51.055C154.497 50.285 154.662 49.595 154.992 48.985C155.332 48.375 155.792 47.9 156.372 47.56C156.962 47.22 157.622 47.05 158.352 47.05C159.082 47.05 159.737 47.22 160.317 47.56C160.897 47.9 161.352 48.375 161.682 48.985C162.012 49.585 162.177 50.275 162.177 51.055L162.162 51.385ZM158.352 47.965C157.592 47.965 156.952 48.21 156.432 48.7C155.922 49.18 155.632 49.81 155.562 50.59H161.157C161.087 49.81 160.792 49.18 160.272 48.7C159.762 48.21 159.122 47.965 158.352 47.965ZM166.459 55.075C165.819 55.075 165.204 54.985 164.614 54.805C164.034 54.615 163.579 54.38 163.249 54.1L163.729 53.26C164.059 53.52 164.474 53.735 164.974 53.905C165.474 54.065 165.994 54.145 166.534 54.145C167.254 54.145 167.784 54.035 168.124 53.815C168.474 53.585 168.649 53.265 168.649 52.855C168.649 52.565 168.554 52.34 168.364 52.18C168.174 52.01 167.934 51.885 167.644 51.805C167.354 51.715 166.969 51.63 166.489 51.55C165.849 51.43 165.334 51.31 164.944 51.19C164.554 51.06 164.219 50.845 163.939 50.545C163.669 50.245 163.534 49.83 163.534 49.3C163.534 48.64 163.809 48.1 164.359 47.68C164.909 47.26 165.674 47.05 166.654 47.05C167.164 47.05 167.674 47.12 168.184 47.26C168.694 47.39 169.114 47.565 169.444 47.785L168.979 48.64C168.329 48.19 167.554 47.965 166.654 47.965C165.974 47.965 165.459 48.085 165.109 48.325C164.769 48.565 164.599 48.88 164.599 49.27C164.599 49.57 164.694 49.81 164.884 49.99C165.084 50.17 165.329 50.305 165.619 50.395C165.909 50.475 166.309 50.56 166.819 50.65C167.449 50.77 167.954 50.89 168.334 51.01C168.714 51.13 169.039 51.335 169.309 51.625C169.579 51.915 169.714 52.315 169.714 52.825C169.714 53.515 169.424 54.065 168.844 54.475C168.274 54.875 167.479 55.075 166.459 55.075ZM175.024 50.47H178.954V51.4H175.024V50.47ZM193.973 55.09C192.933 55.09 191.993 54.86 191.153 54.4C190.323 53.94 189.668 53.305 189.188 52.495C188.718 51.675 188.483 50.76 188.483 49.75C188.483 48.74 188.718 47.83 189.188 47.02C189.668 46.2 190.328 45.56 191.168 45.1C192.008 44.64 192.948 44.41 193.988 44.41C194.768 44.41 195.488 44.54 196.148 44.8C196.808 45.06 197.368 45.44 197.828 45.94L197.123 46.645C196.303 45.815 195.268 45.4 194.018 45.4C193.188 45.4 192.433 45.59 191.753 45.97C191.073 46.35 190.538 46.87 190.148 47.53C189.768 48.19 189.578 48.93 189.578 49.75C189.578 50.57 189.768 51.31 190.148 51.97C190.538 52.63 191.073 53.15 191.753 53.53C192.433 53.91 193.188 54.1 194.018 54.1C195.278 54.1 196.313 53.68 197.123 52.84L197.828 53.545C197.368 54.045 196.803 54.43 196.133 54.7C195.473 54.96 194.753 55.09 193.973 55.09ZM202.612 47.05C203.642 47.05 204.432 47.31 204.982 47.83C205.532 48.34 205.807 49.1 205.807 50.11V55H204.787V53.77C204.547 54.18 204.192 54.5 203.722 54.73C203.262 54.96 202.712 55.075 202.072 55.075C201.192 55.075 200.492 54.865 199.972 54.445C199.452 54.025 199.192 53.47 199.192 52.78C199.192 52.11 199.432 51.57 199.912 51.16C200.402 50.75 201.177 50.545 202.237 50.545H204.742V50.065C204.742 49.385 204.552 48.87 204.172 48.52C203.792 48.16 203.237 47.98 202.507 47.98C202.007 47.98 201.527 48.065 201.067 48.235C200.607 48.395 200.212 48.62 199.882 48.91L199.402 48.115C199.802 47.775 200.282 47.515 200.842 47.335C201.402 47.145 201.992 47.05 202.612 47.05ZM202.237 54.235C202.837 54.235 203.352 54.1 203.782 53.83C204.212 53.55 204.532 53.15 204.742 52.63V51.34H202.267C200.917 51.34 200.242 51.81 200.242 52.75C200.242 53.21 200.417 53.575 200.767 53.845C201.117 54.105 201.607 54.235 202.237 54.235ZM212.855 54.52C212.655 54.7 212.405 54.84 212.105 54.94C211.815 55.03 211.51 55.075 211.19 55.075C210.45 55.075 209.88 54.875 209.48 54.475C209.08 54.075 208.88 53.51 208.88 52.78V48.01H207.47V47.11H208.88V45.385H209.945V47.11H212.345V48.01H209.945V52.72C209.945 53.19 210.06 53.55 210.29 53.8C210.53 54.04 210.87 54.16 211.31 54.16C211.53 54.16 211.74 54.125 211.94 54.055C212.15 53.985 212.33 53.885 212.48 53.755L212.855 54.52ZM221.385 51.385H214.785C214.845 52.205 215.16 52.87 215.73 53.38C216.3 53.88 217.02 54.13 217.89 54.13C218.38 54.13 218.83 54.045 219.24 53.875C219.65 53.695 220.005 53.435 220.305 53.095L220.905 53.785C220.555 54.205 220.115 54.525 219.585 54.745C219.065 54.965 218.49 55.075 217.86 55.075C217.05 55.075 216.33 54.905 215.7 54.565C215.08 54.215 214.595 53.735 214.245 53.125C213.895 52.515 213.72 51.825 213.72 51.055C213.72 50.285 213.885 49.595 214.215 48.985C214.555 48.375 215.015 47.9 215.595 47.56C216.185 47.22 216.845 47.05 217.575 47.05C218.305 47.05 218.96 47.22 219.54 47.56C220.12 47.9 220.575 48.375 220.905 48.985C221.235 49.585 221.4 50.275 221.4 51.055L221.385 51.385ZM217.575 47.965C216.815 47.965 216.175 48.21 215.655 48.7C215.145 49.18 214.855 49.81 214.785 50.59H220.38C220.31 49.81 220.015 49.18 219.495 48.7C218.985 48.21 218.345 47.965 217.575 47.965ZM230.873 47.11V54.04C230.873 55.38 230.543 56.37 229.883 57.01C229.233 57.66 228.248 57.985 226.928 57.985C226.198 57.985 225.503 57.875 224.843 57.655C224.193 57.445 223.663 57.15 223.253 56.77L223.793 55.96C224.173 56.3 224.633 56.565 225.173 56.755C225.723 56.945 226.298 57.04 226.898 57.04C227.898 57.04 228.633 56.805 229.103 56.335C229.573 55.875 229.808 55.155 229.808 54.175V53.17C229.478 53.67 229.043 54.05 228.503 54.31C227.973 54.57 227.383 54.7 226.733 54.7C225.993 54.7 225.318 54.54 224.708 54.22C224.108 53.89 223.633 53.435 223.283 52.855C222.943 52.265 222.773 51.6 222.773 50.86C222.773 50.12 222.943 49.46 223.283 48.88C223.633 48.3 224.108 47.85 224.708 47.53C225.308 47.21 225.983 47.05 226.733 47.05C227.403 47.05 228.008 47.185 228.548 47.455C229.088 47.725 229.523 48.115 229.853 48.625V47.11H230.873ZM226.838 53.755C227.408 53.755 227.923 53.635 228.383 53.395C228.843 53.145 229.198 52.8 229.448 52.36C229.708 51.92 229.838 51.42 229.838 50.86C229.838 50.3 229.708 49.805 229.448 49.375C229.198 48.935 228.843 48.595 228.383 48.355C227.933 48.105 227.418 47.98 226.838 47.98C226.268 47.98 225.753 48.1 225.293 48.34C224.843 48.58 224.488 48.92 224.228 49.36C223.978 49.8 223.853 50.3 223.853 50.86C223.853 51.42 223.978 51.92 224.228 52.36C224.488 52.8 224.843 53.145 225.293 53.395C225.753 53.635 226.268 53.755 226.838 53.755ZM237.076 55.075C236.316 55.075 235.631 54.905 235.021 54.565C234.411 54.215 233.931 53.735 233.581 53.125C233.231 52.515 233.056 51.825 233.056 51.055C233.056 50.285 233.231 49.595 233.581 48.985C233.931 48.375 234.411 47.9 235.021 47.56C235.631 47.22 236.316 47.05 237.076 47.05C237.836 47.05 238.521 47.22 239.131 47.56C239.741 47.9 240.216 48.375 240.556 48.985C240.906 49.595 241.081 50.285 241.081 51.055C241.081 51.825 240.906 52.515 240.556 53.125C240.216 53.735 239.741 54.215 239.131 54.565C238.521 54.905 237.836 55.075 237.076 55.075ZM237.076 54.13C237.636 54.13 238.136 54.005 238.576 53.755C239.026 53.495 239.376 53.13 239.626 52.66C239.876 52.19 240.001 51.655 240.001 51.055C240.001 50.455 239.876 49.92 239.626 49.45C239.376 48.98 239.026 48.62 238.576 48.37C238.136 48.11 237.636 47.98 237.076 47.98C236.516 47.98 236.011 48.11 235.561 48.37C235.121 48.62 234.771 48.98 234.511 49.45C234.261 49.92 234.136 50.455 234.136 51.055C234.136 51.655 234.261 52.19 234.511 52.66C234.771 53.13 235.121 53.495 235.561 53.755C236.011 54.005 236.516 54.13 237.076 54.13ZM244.276 48.655C244.526 48.125 244.896 47.725 245.386 47.455C245.886 47.185 246.501 47.05 247.231 47.05V48.085L246.976 48.07C246.146 48.07 245.496 48.325 245.026 48.835C244.556 49.345 244.321 50.06 244.321 50.98V55H243.256V47.11H244.276V48.655ZM249.159 47.11H250.224V55H249.159V47.11ZM249.699 45.385C249.479 45.385 249.294 45.31 249.144 45.16C248.994 45.01 248.919 44.83 248.919 44.62C248.919 44.42 248.994 44.245 249.144 44.095C249.294 43.945 249.479 43.87 249.699 43.87C249.919 43.87 250.104 43.945 250.254 44.095C250.404 44.235 250.479 44.405 250.479 44.605C250.479 44.825 250.404 45.01 250.254 45.16C250.104 45.31 249.919 45.385 249.699 45.385ZM260.057 51.385H253.457C253.517 52.205 253.832 52.87 254.402 53.38C254.972 53.88 255.692 54.13 256.562 54.13C257.052 54.13 257.502 54.045 257.912 53.875C258.322 53.695 258.677 53.435 258.977 53.095L259.577 53.785C259.227 54.205 258.787 54.525 258.257 54.745C257.737 54.965 257.162 55.075 256.532 55.075C255.722 55.075 255.002 54.905 254.372 54.565C253.752 54.215 253.267 53.735 252.917 53.125C252.567 52.515 252.392 51.825 252.392 51.055C252.392 50.285 252.557 49.595 252.887 48.985C253.227 48.375 253.687 47.9 254.267 47.56C254.857 47.22 255.517 47.05 256.247 47.05C256.977 47.05 257.632 47.22 258.212 47.56C258.792 47.9 259.247 48.375 259.577 48.985C259.907 49.585 260.072 50.275 260.072 51.055L260.057 51.385ZM256.247 47.965C255.487 47.965 254.847 48.21 254.327 48.7C253.817 49.18 253.527 49.81 253.457 50.59H259.052C258.982 49.81 258.687 49.18 258.167 48.7C257.657 48.21 257.017 47.965 256.247 47.965ZM264.355 55.075C263.715 55.075 263.1 54.985 262.51 54.805C261.93 54.615 261.475 54.38 261.145 54.1L261.625 53.26C261.955 53.52 262.37 53.735 262.87 53.905C263.37 54.065 263.89 54.145 264.43 54.145C265.15 54.145 265.68 54.035 266.02 53.815C266.37 53.585 266.545 53.265 266.545 52.855C266.545 52.565 266.45 52.34 266.26 52.18C266.07 52.01 265.83 51.885 265.54 51.805C265.25 51.715 264.865 51.63 264.385 51.55C263.745 51.43 263.23 51.31 262.84 51.19C262.45 51.06 262.115 50.845 261.835 50.545C261.565 50.245 261.43 49.83 261.43 49.3C261.43 48.64 261.705 48.1 262.255 47.68C262.805 47.26 263.57 47.05 264.55 47.05C265.06 47.05 265.57 47.12 266.08 47.26C266.59 47.39 267.01 47.565 267.34 47.785L266.875 48.64C266.225 48.19 265.45 47.965 264.55 47.965C263.87 47.965 263.355 48.085 263.005 48.325C262.665 48.565 262.495 48.88 262.495 49.27C262.495 49.57 262.59 49.81 262.78 49.99C262.98 50.17 263.225 50.305 263.515 50.395C263.805 50.475 264.205 50.56 264.715 50.65C265.345 50.77 265.85 50.89 266.23 51.01C266.61 51.13 266.935 51.335 267.205 51.625C267.475 51.915 267.61 52.315 267.61 52.825C267.61 53.515 267.32 54.065 266.74 54.475C266.17 54.875 265.375 55.075 264.355 55.075ZM275.77 45.46H272.08V44.5H280.57V45.46H276.88V55H275.77V45.46ZM281.913 47.11H282.978V55H281.913V47.11ZM282.453 45.385C282.233 45.385 282.048 45.31 281.898 45.16C281.748 45.01 281.673 44.83 281.673 44.62C281.673 44.42 281.748 44.245 281.898 44.095C282.048 43.945 282.233 43.87 282.453 43.87C282.673 43.87 282.858 43.945 283.008 44.095C283.158 44.235 283.233 44.405 283.233 44.605C283.233 44.825 283.158 45.01 283.008 45.16C282.858 45.31 282.673 45.385 282.453 45.385ZM290.096 54.52C289.896 54.7 289.646 54.84 289.346 54.94C289.056 55.03 288.751 55.075 288.431 55.075C287.691 55.075 287.121 54.875 286.721 54.475C286.321 54.075 286.121 53.51 286.121 52.78V48.01H284.711V47.11H286.121V45.385H287.186V47.11H289.586V48.01H287.186V52.72C287.186 53.19 287.301 53.55 287.531 53.8C287.771 54.04 288.111 54.16 288.551 54.16C288.771 54.16 288.981 54.125 289.181 54.055C289.391 53.985 289.571 53.885 289.721 53.755L290.096 54.52ZM292.035 43.87H293.1V55H292.035V43.87ZM302.933 51.385H296.333C296.393 52.205 296.708 52.87 297.278 53.38C297.848 53.88 298.568 54.13 299.438 54.13C299.928 54.13 300.378 54.045 300.788 53.875C301.198 53.695 301.553 53.435 301.853 53.095L302.453 53.785C302.103 54.205 301.663 54.525 301.133 54.745C300.613 54.965 300.038 55.075 299.408 55.075C298.598 55.075 297.878 54.905 297.248 54.565C296.628 54.215 296.143 53.735 295.793 53.125C295.443 52.515 295.268 51.825 295.268 51.055C295.268 50.285 295.433 49.595 295.763 48.985C296.103 48.375 296.563 47.9 297.143 47.56C297.733 47.22 298.393 47.05 299.123 47.05C299.853 47.05 300.508 47.22 301.088 47.56C301.668 47.9 302.123 48.375 302.453 48.985C302.783 49.585 302.948 50.275 302.948 51.055L302.933 51.385ZM299.123 47.965C298.363 47.965 297.723 48.21 297.203 48.7C296.693 49.18 296.403 49.81 296.333 50.59H301.928C301.858 49.81 301.563 49.18 301.043 48.7C300.533 48.21 299.893 47.965 299.123 47.965ZM307.231 55.075C306.591 55.075 305.976 54.985 305.386 54.805C304.806 54.615 304.351 54.38 304.021 54.1L304.501 53.26C304.831 53.52 305.246 53.735 305.746 53.905C306.246 54.065 306.766 54.145 307.306 54.145C308.026 54.145 308.556 54.035 308.896 53.815C309.246 53.585 309.421 53.265 309.421 52.855C309.421 52.565 309.326 52.34 309.136 52.18C308.946 52.01 308.706 51.885 308.416 51.805C308.126 51.715 307.741 51.63 307.261 51.55C306.621 51.43 306.106 51.31 305.716 51.19C305.326 51.06 304.991 50.845 304.711 50.545C304.441 50.245 304.306 49.83 304.306 49.3C304.306 48.64 304.581 48.1 305.131 47.68C305.681 47.26 306.446 47.05 307.426 47.05C307.936 47.05 308.446 47.12 308.956 47.26C309.466 47.39 309.886 47.565 310.216 47.785L309.751 48.64C309.101 48.19 308.326 47.965 307.426 47.965C306.746 47.965 306.231 48.085 305.881 48.325C305.541 48.565 305.371 48.88 305.371 49.27C305.371 49.57 305.466 49.81 305.656 49.99C305.856 50.17 306.101 50.305 306.391 50.395C306.681 50.475 307.081 50.56 307.591 50.65C308.221 50.77 308.726 50.89 309.106 51.01C309.486 51.13 309.811 51.335 310.081 51.625C310.351 51.915 310.486 52.315 310.486 52.825C310.486 53.515 310.196 54.065 309.616 54.475C309.046 54.875 308.251 55.075 307.231 55.075Z" fill="#314760"/>
<circle cx="3.5" cy="49.5" r="3.5" fill="#314760"/>
<circle cx="436.773" cy="49.7727" r="1.77273" fill="#314760"/>
<circle cx="446.227" cy="49.7727" r="1.77273" fill="#314760"/>
<circle cx="441.5" cy="49.7727" r="1.77273" fill="#314760"/>
<path d="M28.27 96.09C27.23 96.09 26.29 95.86 25.45 95.4C24.62 94.94 23.965 94.305 23.485 93.495C23.015 92.675 22.78 91.76 22.78 90.75C22.78 89.74 23.015 88.83 23.485 88.02C23.965 87.2 24.625 86.56 25.465 86.1C26.305 85.64 27.245 85.41 28.285 85.41C29.065 85.41 29.785 85.54 30.445 85.8C31.105 86.06 31.665 86.44 32.125 86.94L31.42 87.645C30.6 86.815 29.565 86.4 28.315 86.4C27.485 86.4 26.73 86.59 26.05 86.97C25.37 87.35 24.835 87.87 24.445 88.53C24.065 89.19 23.875 89.93 23.875 90.75C23.875 91.57 24.065 92.31 24.445 92.97C24.835 93.63 25.37 94.15 26.05 94.53C26.73 94.91 27.485 95.1 28.315 95.1C29.575 95.1 30.61 94.68 31.42 93.84L32.125 94.545C31.665 95.045 31.1 95.43 30.43 95.7C29.77 95.96 29.05 96.09 28.27 96.09ZM34.4913 85.5H35.6013V95.04H41.4813V96H34.4913V85.5ZM47.7092 96.09C46.6692 96.09 45.7242 95.86 44.8742 95.4C44.0342 94.93 43.3742 94.29 42.8942 93.48C42.4242 92.67 42.1892 91.76 42.1892 90.75C42.1892 89.74 42.4242 88.83 42.8942 88.02C43.3742 87.21 44.0342 86.575 44.8742 86.115C45.7242 85.645 46.6692 85.41 47.7092 85.41C48.7492 85.41 49.6842 85.64 50.5142 86.1C51.3542 86.56 52.0142 87.2 52.4942 88.02C52.9742 88.83 53.2142 89.74 53.2142 90.75C53.2142 91.76 52.9742 92.675 52.4942 93.495C52.0142 94.305 51.3542 94.94 50.5142 95.4C49.6842 95.86 48.7492 96.09 47.7092 96.09ZM47.7092 95.1C48.5392 95.1 49.2892 94.915 49.9592 94.545C50.6292 94.165 51.1542 93.645 51.5342 92.985C51.9142 92.315 52.1042 91.57 52.1042 90.75C52.1042 89.93 51.9142 89.19 51.5342 88.53C51.1542 87.86 50.6292 87.34 49.9592 86.97C49.2892 86.59 48.5392 86.4 47.7092 86.4C46.8792 86.4 46.1242 86.59 45.4442 86.97C44.7742 87.34 44.2442 87.86 43.8542 88.53C43.4742 89.19 43.2842 89.93 43.2842 90.75C43.2842 91.57 43.4742 92.315 43.8542 92.985C44.2442 93.645 44.7742 94.165 45.4442 94.545C46.1242 94.915 46.8792 95.1 47.7092 95.1ZM64.4772 85.5V96H63.5622L56.8122 87.48V96H55.7022V85.5H56.6172L63.3822 94.02V85.5H64.4772ZM75.3293 95.04V96H67.9043V85.5H75.1043V86.46H69.0143V90.195H74.4443V91.14H69.0143V95.04H75.3293ZM81.0543 91.47H84.9843V92.4H81.0543V91.47ZM93.5576 86.46H89.8676V85.5H98.3576V86.46H94.6676V96H93.5576V86.46ZM99.7008 88.11H100.766V96H99.7008V88.11ZM100.241 86.385C100.021 86.385 99.8358 86.31 99.6858 86.16C99.5358 86.01 99.4608 85.83 99.4608 85.62C99.4608 85.42 99.5358 85.245 99.6858 85.095C99.8358 84.945 100.021 84.87 100.241 84.87C100.461 84.87 100.646 84.945 100.796 85.095C100.946 85.235 101.021 85.405 101.021 85.605C101.021 85.825 100.946 86.01 100.796 86.16C100.646 86.31 100.461 86.385 100.241 86.385ZM106.999 96.075C106.219 96.075 105.519 95.905 104.899 95.565C104.289 95.225 103.809 94.75 103.459 94.14C103.109 93.52 102.934 92.825 102.934 92.055C102.934 91.285 103.109 90.595 103.459 89.985C103.809 89.375 104.289 88.9 104.899 88.56C105.519 88.22 106.219 88.05 106.999 88.05C107.679 88.05 108.284 88.185 108.814 88.455C109.354 88.715 109.779 89.1 110.089 89.61L109.294 90.15C109.034 89.76 108.704 89.47 108.304 89.28C107.904 89.08 107.469 88.98 106.999 88.98C106.429 88.98 105.914 89.11 105.454 89.37C105.004 89.62 104.649 89.98 104.389 90.45C104.139 90.92 104.014 91.455 104.014 92.055C104.014 92.665 104.139 93.205 104.389 93.675C104.649 94.135 105.004 94.495 105.454 94.755C105.914 95.005 106.429 95.13 106.999 95.13C107.469 95.13 107.904 95.035 108.304 94.845C108.704 94.655 109.034 94.365 109.294 93.975L110.089 94.515C109.779 95.025 109.354 95.415 108.814 95.685C108.274 95.945 107.669 96.075 106.999 96.075ZM114.989 92.04L113.129 93.75V96H112.064V84.87H113.129V92.415L117.839 88.11H119.159L115.784 91.335L119.474 96H118.169L114.989 92.04ZM127.621 92.385H121.021C121.081 93.205 121.396 93.87 121.966 94.38C122.536 94.88 123.256 95.13 124.126 95.13C124.616 95.13 125.066 95.045 125.476 94.875C125.886 94.695 126.241 94.435 126.541 94.095L127.141 94.785C126.791 95.205 126.351 95.525 125.821 95.745C125.301 95.965 124.726 96.075 124.096 96.075C123.286 96.075 122.566 95.905 121.936 95.565C121.316 95.215 120.831 94.735 120.481 94.125C120.131 93.515 119.956 92.825 119.956 92.055C119.956 91.285 120.121 90.595 120.451 89.985C120.791 89.375 121.251 88.9 121.831 88.56C122.421 88.22 123.081 88.05 123.811 88.05C124.541 88.05 125.196 88.22 125.776 88.56C126.356 88.9 126.811 89.375 127.141 89.985C127.471 90.585 127.636 91.275 127.636 92.055L127.621 92.385ZM123.811 88.965C123.051 88.965 122.411 89.21 121.891 89.7C121.381 90.18 121.091 90.81 121.021 91.59H126.616C126.546 90.81 126.251 90.18 125.731 89.7C125.221 89.21 124.581 88.965 123.811 88.965ZM133.958 95.52C133.758 95.7 133.508 95.84 133.208 95.94C132.918 96.03 132.613 96.075 132.293 96.075C131.553 96.075 130.983 95.875 130.583 95.475C130.183 95.075 129.983 94.51 129.983 93.78V89.01H128.573V88.11H129.983V86.385H131.048V88.11H133.448V89.01H131.048V93.72C131.048 94.19 131.163 94.55 131.393 94.8C131.633 95.04 131.973 95.16 132.413 95.16C132.633 95.16 132.843 95.125 133.043 95.055C133.253 94.985 133.433 94.885 133.583 94.755L133.958 95.52ZM138.012 96.075C137.372 96.075 136.757 95.985 136.167 95.805C135.587 95.615 135.132 95.38 134.802 95.1L135.282 94.26C135.612 94.52 136.027 94.735 136.527 94.905C137.027 95.065 137.547 95.145 138.087 95.145C138.807 95.145 139.337 95.035 139.677 94.815C140.027 94.585 140.202 94.265 140.202 93.855C140.202 93.565 140.107 93.34 139.917 93.18C139.727 93.01 139.487 92.885 139.197 92.805C138.907 92.715 138.522 92.63 138.042 92.55C137.402 92.43 136.887 92.31 136.497 92.19C136.107 92.06 135.772 91.845 135.492 91.545C135.222 91.245 135.087 90.83 135.087 90.3C135.087 89.64 135.362 89.1 135.912 88.68C136.462 88.26 137.227 88.05 138.207 88.05C138.717 88.05 139.227 88.12 139.737 88.26C140.247 88.39 140.667 88.565 140.997 88.785L140.532 89.64C139.882 89.19 139.107 88.965 138.207 88.965C137.527 88.965 137.012 89.085 136.662 89.325C136.322 89.565 136.152 89.88 136.152 90.27C136.152 90.57 136.247 90.81 136.437 90.99C136.637 91.17 136.882 91.305 137.172 91.395C137.462 91.475 137.862 91.56 138.372 91.65C139.002 91.77 139.507 91.89 139.887 92.01C140.267 92.13 140.592 92.335 140.862 92.625C141.132 92.915 141.267 93.315 141.267 93.825C141.267 94.515 140.977 95.065 140.397 95.475C139.827 95.875 139.032 96.075 138.012 96.075Z" fill="#314760"/>
<circle cx="3.5" cy="90.5" r="3.5" fill="#314760"/>
<circle cx="436.773" cy="90.7727" r="1.77273" fill="#314760"/>
<circle cx="446.227" cy="90.7727" r="1.77273" fill="#314760"/>
<circle cx="441.5" cy="90.7727" r="1.77273" fill="#314760"/>
<path d="M28.27 137.09C27.23 137.09 26.29 136.86 25.45 136.4C24.62 135.94 23.965 135.305 23.485 134.495C23.015 133.675 22.78 132.76 22.78 131.75C22.78 130.74 23.015 129.83 23.485 129.02C23.965 128.2 24.625 127.56 25.465 127.1C26.305 126.64 27.245 126.41 28.285 126.41C29.065 126.41 29.785 126.54 30.445 126.8C31.105 127.06 31.665 127.44 32.125 127.94L31.42 128.645C30.6 127.815 29.565 127.4 28.315 127.4C27.485 127.4 26.73 127.59 26.05 127.97C25.37 128.35 24.835 128.87 24.445 129.53C24.065 130.19 23.875 130.93 23.875 131.75C23.875 132.57 24.065 133.31 24.445 133.97C24.835 134.63 25.37 135.15 26.05 135.53C26.73 135.91 27.485 136.1 28.315 136.1C29.575 136.1 30.61 135.68 31.42 134.84L32.125 135.545C31.665 136.045 31.1 136.43 30.43 136.7C29.77 136.96 29.05 137.09 28.27 137.09ZM34.4913 126.5H35.6013V136.04H41.4813V137H34.4913V126.5ZM47.7092 137.09C46.6692 137.09 45.7242 136.86 44.8742 136.4C44.0342 135.93 43.3742 135.29 42.8942 134.48C42.4242 133.67 42.1892 132.76 42.1892 131.75C42.1892 130.74 42.4242 129.83 42.8942 129.02C43.3742 128.21 44.0342 127.575 44.8742 127.115C45.7242 126.645 46.6692 126.41 47.7092 126.41C48.7492 126.41 49.6842 126.64 50.5142 127.1C51.3542 127.56 52.0142 128.2 52.4942 129.02C52.9742 129.83 53.2142 130.74 53.2142 131.75C53.2142 132.76 52.9742 133.675 52.4942 134.495C52.0142 135.305 51.3542 135.94 50.5142 136.4C49.6842 136.86 48.7492 137.09 47.7092 137.09ZM47.7092 136.1C48.5392 136.1 49.2892 135.915 49.9592 135.545C50.6292 135.165 51.1542 134.645 51.5342 133.985C51.9142 133.315 52.1042 132.57 52.1042 131.75C52.1042 130.93 51.9142 130.19 51.5342 129.53C51.1542 128.86 50.6292 128.34 49.9592 127.97C49.2892 127.59 48.5392 127.4 47.7092 127.4C46.8792 127.4 46.1242 127.59 45.4442 127.97C44.7742 128.34 44.2442 128.86 43.8542 129.53C43.4742 130.19 43.2842 130.93 43.2842 131.75C43.2842 132.57 43.4742 133.315 43.8542 133.985C44.2442 134.645 44.7742 135.165 45.4442 135.545C46.1242 135.915 46.8792 136.1 47.7092 136.1ZM64.4772 126.5V137H63.5622L56.8122 128.48V137H55.7022V126.5H56.6172L63.3822 135.02V126.5H64.4772ZM75.3293 136.04V137H67.9043V126.5H75.1043V127.46H69.0143V131.195H74.4443V132.14H69.0143V136.04H75.3293ZM81.0543 132.47H84.9843V133.4H81.0543V132.47ZM93.5576 127.46H89.8676V126.5H98.3576V127.46H94.6676V137H93.5576V127.46ZM99.7008 129.11H100.766V137H99.7008V129.11ZM100.241 127.385C100.021 127.385 99.8358 127.31 99.6858 127.16C99.5358 127.01 99.4608 126.83 99.4608 126.62C99.4608 126.42 99.5358 126.245 99.6858 126.095C99.8358 125.945 100.021 125.87 100.241 125.87C100.461 125.87 100.646 125.945 100.796 126.095C100.946 126.235 101.021 126.405 101.021 126.605C101.021 126.825 100.946 127.01 100.796 127.16C100.646 127.31 100.461 127.385 100.241 127.385ZM106.999 137.075C106.219 137.075 105.519 136.905 104.899 136.565C104.289 136.225 103.809 135.75 103.459 135.14C103.109 134.52 102.934 133.825 102.934 133.055C102.934 132.285 103.109 131.595 103.459 130.985C103.809 130.375 104.289 129.9 104.899 129.56C105.519 129.22 106.219 129.05 106.999 129.05C107.679 129.05 108.284 129.185 108.814 129.455C109.354 129.715 109.779 130.1 110.089 130.61L109.294 131.15C109.034 130.76 108.704 130.47 108.304 130.28C107.904 130.08 107.469 129.98 106.999 129.98C106.429 129.98 105.914 130.11 105.454 130.37C105.004 130.62 104.649 130.98 104.389 131.45C104.139 131.92 104.014 132.455 104.014 133.055C104.014 133.665 104.139 134.205 104.389 134.675C104.649 135.135 105.004 135.495 105.454 135.755C105.914 136.005 106.429 136.13 106.999 136.13C107.469 136.13 107.904 136.035 108.304 135.845C108.704 135.655 109.034 135.365 109.294 134.975L110.089 135.515C109.779 136.025 109.354 136.415 108.814 136.685C108.274 136.945 107.669 137.075 106.999 137.075ZM114.989 133.04L113.129 134.75V137H112.064V125.87H113.129V133.415L117.839 129.11H119.159L115.784 132.335L119.474 137H118.169L114.989 133.04ZM127.621 133.385H121.021C121.081 134.205 121.396 134.87 121.966 135.38C122.536 135.88 123.256 136.13 124.126 136.13C124.616 136.13 125.066 136.045 125.476 135.875C125.886 135.695 126.241 135.435 126.541 135.095L127.141 135.785C126.791 136.205 126.351 136.525 125.821 136.745C125.301 136.965 124.726 137.075 124.096 137.075C123.286 137.075 122.566 136.905 121.936 136.565C121.316 136.215 120.831 135.735 120.481 135.125C120.131 134.515 119.956 133.825 119.956 133.055C119.956 132.285 120.121 131.595 120.451 130.985C120.791 130.375 121.251 129.9 121.831 129.56C122.421 129.22 123.081 129.05 123.811 129.05C124.541 129.05 125.196 129.22 125.776 129.56C126.356 129.9 126.811 130.375 127.141 130.985C127.471 131.585 127.636 132.275 127.636 133.055L127.621 133.385ZM123.811 129.965C123.051 129.965 122.411 130.21 121.891 130.7C121.381 131.18 121.091 131.81 121.021 132.59H126.616C126.546 131.81 126.251 131.18 125.731 130.7C125.221 130.21 124.581 129.965 123.811 129.965ZM133.958 136.52C133.758 136.7 133.508 136.84 133.208 136.94C132.918 137.03 132.613 137.075 132.293 137.075C131.553 137.075 130.983 136.875 130.583 136.475C130.183 136.075 129.983 135.51 129.983 134.78V130.01H128.573V129.11H129.983V127.385H131.048V129.11H133.448V130.01H131.048V134.72C131.048 135.19 131.163 135.55 131.393 135.8C131.633 136.04 131.973 136.16 132.413 136.16C132.633 136.16 132.843 136.125 133.043 136.055C133.253 135.985 133.433 135.885 133.583 135.755L133.958 136.52ZM138.012 137.075C137.372 137.075 136.757 136.985 136.167 136.805C135.587 136.615 135.132 136.38 134.802 136.1L135.282 135.26C135.612 135.52 136.027 135.735 136.527 135.905C137.027 136.065 137.547 136.145 138.087 136.145C138.807 136.145 139.337 136.035 139.677 135.815C140.027 135.585 140.202 135.265 140.202 134.855C140.202 134.565 140.107 134.34 139.917 134.18C139.727 134.01 139.487 133.885 139.197 133.805C138.907 133.715 138.522 133.63 138.042 133.55C137.402 133.43 136.887 133.31 136.497 133.19C136.107 133.06 135.772 132.845 135.492 132.545C135.222 132.245 135.087 131.83 135.087 131.3C135.087 130.64 135.362 130.1 135.912 129.68C136.462 129.26 137.227 129.05 138.207 129.05C138.717 129.05 139.227 129.12 139.737 129.26C140.247 129.39 140.667 129.565 140.997 129.785L140.532 130.64C139.882 130.19 139.107 129.965 138.207 129.965C137.527 129.965 137.012 130.085 136.662 130.325C136.322 130.565 136.152 130.88 136.152 131.27C136.152 131.57 136.247 131.81 136.437 131.99C136.637 132.17 136.882 132.305 137.172 132.395C137.462 132.475 137.862 132.56 138.372 132.65C139.002 132.77 139.507 132.89 139.887 133.01C140.267 133.13 140.592 133.335 140.862 133.625C141.132 133.915 141.267 134.315 141.267 134.825C141.267 135.515 140.977 136.065 140.397 136.475C139.827 136.875 139.032 137.075 138.012 137.075Z" fill="#314760"/>
<circle cx="3.5" cy="131.5" r="3.5" fill="#314760"/>
<circle cx="436.773" cy="131.773" r="1.77273" fill="#314760"/>
<circle cx="446.227" cy="131.773" r="1.77273" fill="#314760"/>
<circle cx="441.5" cy="131.773" r="1.77273" fill="#314760"/>
<path d="M28.27 178.09C27.23 178.09 26.29 177.86 25.45 177.4C24.62 176.94 23.965 176.305 23.485 175.495C23.015 174.675 22.78 173.76 22.78 172.75C22.78 171.74 23.015 170.83 23.485 170.02C23.965 169.2 24.625 168.56 25.465 168.1C26.305 167.64 27.245 167.41 28.285 167.41C29.065 167.41 29.785 167.54 30.445 167.8C31.105 168.06 31.665 168.44 32.125 168.94L31.42 169.645C30.6 168.815 29.565 168.4 28.315 168.4C27.485 168.4 26.73 168.59 26.05 168.97C25.37 169.35 24.835 169.87 24.445 170.53C24.065 171.19 23.875 171.93 23.875 172.75C23.875 173.57 24.065 174.31 24.445 174.97C24.835 175.63 25.37 176.15 26.05 176.53C26.73 176.91 27.485 177.1 28.315 177.1C29.575 177.1 30.61 176.68 31.42 175.84L32.125 176.545C31.665 177.045 31.1 177.43 30.43 177.7C29.77 177.96 29.05 178.09 28.27 178.09ZM34.4913 167.5H35.6013V177.04H41.4813V178H34.4913V167.5ZM47.7092 178.09C46.6692 178.09 45.7242 177.86 44.8742 177.4C44.0342 176.93 43.3742 176.29 42.8942 175.48C42.4242 174.67 42.1892 173.76 42.1892 172.75C42.1892 171.74 42.4242 170.83 42.8942 170.02C43.3742 169.21 44.0342 168.575 44.8742 168.115C45.7242 167.645 46.6692 167.41 47.7092 167.41C48.7492 167.41 49.6842 167.64 50.5142 168.1C51.3542 168.56 52.0142 169.2 52.4942 170.02C52.9742 170.83 53.2142 171.74 53.2142 172.75C53.2142 173.76 52.9742 174.675 52.4942 175.495C52.0142 176.305 51.3542 176.94 50.5142 177.4C49.6842 177.86 48.7492 178.09 47.7092 178.09ZM47.7092 177.1C48.5392 177.1 49.2892 176.915 49.9592 176.545C50.6292 176.165 51.1542 175.645 51.5342 174.985C51.9142 174.315 52.1042 173.57 52.1042 172.75C52.1042 171.93 51.9142 171.19 51.5342 170.53C51.1542 169.86 50.6292 169.34 49.9592 168.97C49.2892 168.59 48.5392 168.4 47.7092 168.4C46.8792 168.4 46.1242 168.59 45.4442 168.97C44.7742 169.34 44.2442 169.86 43.8542 170.53C43.4742 171.19 43.2842 171.93 43.2842 172.75C43.2842 173.57 43.4742 174.315 43.8542 174.985C44.2442 175.645 44.7742 176.165 45.4442 176.545C46.1242 176.915 46.8792 177.1 47.7092 177.1ZM64.4772 167.5V178H63.5622L56.8122 169.48V178H55.7022V167.5H56.6172L63.3822 176.02V167.5H64.4772ZM75.3293 177.04V178H67.9043V167.5H75.1043V168.46H69.0143V172.195H74.4443V173.14H69.0143V177.04H75.3293ZM81.0543 173.47H84.9843V174.4H81.0543V173.47ZM93.5576 168.46H89.8676V167.5H98.3576V168.46H94.6676V178H93.5576V168.46ZM99.7008 170.11H100.766V178H99.7008V170.11ZM100.241 168.385C100.021 168.385 99.8358 168.31 99.6858 168.16C99.5358 168.01 99.4608 167.83 99.4608 167.62C99.4608 167.42 99.5358 167.245 99.6858 167.095C99.8358 166.945 100.021 166.87 100.241 166.87C100.461 166.87 100.646 166.945 100.796 167.095C100.946 167.235 101.021 167.405 101.021 167.605C101.021 167.825 100.946 168.01 100.796 168.16C100.646 168.31 100.461 168.385 100.241 168.385ZM106.999 178.075C106.219 178.075 105.519 177.905 104.899 177.565C104.289 177.225 103.809 176.75 103.459 176.14C103.109 175.52 102.934 174.825 102.934 174.055C102.934 173.285 103.109 172.595 103.459 171.985C103.809 171.375 104.289 170.9 104.899 170.56C105.519 170.22 106.219 170.05 106.999 170.05C107.679 170.05 108.284 170.185 108.814 170.455C109.354 170.715 109.779 171.1 110.089 171.61L109.294 172.15C109.034 171.76 108.704 171.47 108.304 171.28C107.904 171.08 107.469 170.98 106.999 170.98C106.429 170.98 105.914 171.11 105.454 171.37C105.004 171.62 104.649 171.98 104.389 172.45C104.139 172.92 104.014 173.455 104.014 174.055C104.014 174.665 104.139 175.205 104.389 175.675C104.649 176.135 105.004 176.495 105.454 176.755C105.914 177.005 106.429 177.13 106.999 177.13C107.469 177.13 107.904 177.035 108.304 176.845C108.704 176.655 109.034 176.365 109.294 175.975L110.089 176.515C109.779 177.025 109.354 177.415 108.814 177.685C108.274 177.945 107.669 178.075 106.999 178.075ZM114.989 174.04L113.129 175.75V178H112.064V166.87H113.129V174.415L117.839 170.11H119.159L115.784 173.335L119.474 178H118.169L114.989 174.04ZM127.621 174.385H121.021C121.081 175.205 121.396 175.87 121.966 176.38C122.536 176.88 123.256 177.13 124.126 177.13C124.616 177.13 125.066 177.045 125.476 176.875C125.886 176.695 126.241 176.435 126.541 176.095L127.141 176.785C126.791 177.205 126.351 177.525 125.821 177.745C125.301 177.965 124.726 178.075 124.096 178.075C123.286 178.075 122.566 177.905 121.936 177.565C121.316 177.215 120.831 176.735 120.481 176.125C120.131 175.515 119.956 174.825 119.956 174.055C119.956 173.285 120.121 172.595 120.451 171.985C120.791 171.375 121.251 170.9 121.831 170.56C122.421 170.22 123.081 170.05 123.811 170.05C124.541 170.05 125.196 170.22 125.776 170.56C126.356 170.9 126.811 171.375 127.141 171.985C127.471 172.585 127.636 173.275 127.636 174.055L127.621 174.385ZM123.811 170.965C123.051 170.965 122.411 171.21 121.891 171.7C121.381 172.18 121.091 172.81 121.021 173.59H126.616C126.546 172.81 126.251 172.18 125.731 171.7C125.221 171.21 124.581 170.965 123.811 170.965ZM133.958 177.52C133.758 177.7 133.508 177.84 133.208 177.94C132.918 178.03 132.613 178.075 132.293 178.075C131.553 178.075 130.983 177.875 130.583 177.475C130.183 177.075 129.983 176.51 129.983 175.78V171.01H128.573V170.11H129.983V168.385H131.048V170.11H133.448V171.01H131.048V175.72C131.048 176.19 131.163 176.55 131.393 176.8C131.633 177.04 131.973 177.16 132.413 177.16C132.633 177.16 132.843 177.125 133.043 177.055C133.253 176.985 133.433 176.885 133.583 176.755L133.958 177.52ZM138.012 178.075C137.372 178.075 136.757 177.985 136.167 177.805C135.587 177.615 135.132 177.38 134.802 177.1L135.282 176.26C135.612 176.52 136.027 176.735 136.527 176.905C137.027 177.065 137.547 177.145 138.087 177.145C138.807 177.145 139.337 177.035 139.677 176.815C140.027 176.585 140.202 176.265 140.202 175.855C140.202 175.565 140.107 175.34 139.917 175.18C139.727 175.01 139.487 174.885 139.197 174.805C138.907 174.715 138.522 174.63 138.042 174.55C137.402 174.43 136.887 174.31 136.497 174.19C136.107 174.06 135.772 173.845 135.492 173.545C135.222 173.245 135.087 172.83 135.087 172.3C135.087 171.64 135.362 171.1 135.912 170.68C136.462 170.26 137.227 170.05 138.207 170.05C138.717 170.05 139.227 170.12 139.737 170.26C140.247 170.39 140.667 170.565 140.997 170.785L140.532 171.64C139.882 171.19 139.107 170.965 138.207 170.965C137.527 170.965 137.012 171.085 136.662 171.325C136.322 171.565 136.152 171.88 136.152 172.27C136.152 172.57 136.247 172.81 136.437 172.99C136.637 173.17 136.882 173.305 137.172 173.395C137.462 173.475 137.862 173.56 138.372 173.65C139.002 173.77 139.507 173.89 139.887 174.01C140.267 174.13 140.592 174.335 140.862 174.625C141.132 174.915 141.267 175.315 141.267 175.825C141.267 176.515 140.977 177.065 140.397 177.475C139.827 177.875 139.032 178.075 138.012 178.075Z" fill="#314760"/>
<circle cx="3.5" cy="172.5" r="3.5" fill="#314760"/>
<circle cx="436.773" cy="172.773" r="1.77273" fill="#314760"/>
<circle cx="446.227" cy="172.773" r="1.77273" fill="#314760"/>
<circle cx="441.5" cy="172.773" r="1.77273" fill="#314760"/>
<path d="M28.27 219.09C27.23 219.09 26.29 218.86 25.45 218.4C24.62 217.94 23.965 217.305 23.485 216.495C23.015 215.675 22.78 214.76 22.78 213.75C22.78 212.74 23.015 211.83 23.485 211.02C23.965 210.2 24.625 209.56 25.465 209.1C26.305 208.64 27.245 208.41 28.285 208.41C29.065 208.41 29.785 208.54 30.445 208.8C31.105 209.06 31.665 209.44 32.125 209.94L31.42 210.645C30.6 209.815 29.565 209.4 28.315 209.4C27.485 209.4 26.73 209.59 26.05 209.97C25.37 210.35 24.835 210.87 24.445 211.53C24.065 212.19 23.875 212.93 23.875 213.75C23.875 214.57 24.065 215.31 24.445 215.97C24.835 216.63 25.37 217.15 26.05 217.53C26.73 217.91 27.485 218.1 28.315 218.1C29.575 218.1 30.61 217.68 31.42 216.84L32.125 217.545C31.665 218.045 31.1 218.43 30.43 218.7C29.77 218.96 29.05 219.09 28.27 219.09ZM34.4913 208.5H35.6013V218.04H41.4813V219H34.4913V208.5ZM47.7092 219.09C46.6692 219.09 45.7242 218.86 44.8742 218.4C44.0342 217.93 43.3742 217.29 42.8942 216.48C42.4242 215.67 42.1892 214.76 42.1892 213.75C42.1892 212.74 42.4242 211.83 42.8942 211.02C43.3742 210.21 44.0342 209.575 44.8742 209.115C45.7242 208.645 46.6692 208.41 47.7092 208.41C48.7492 208.41 49.6842 208.64 50.5142 209.1C51.3542 209.56 52.0142 210.2 52.4942 211.02C52.9742 211.83 53.2142 212.74 53.2142 213.75C53.2142 214.76 52.9742 215.675 52.4942 216.495C52.0142 217.305 51.3542 217.94 50.5142 218.4C49.6842 218.86 48.7492 219.09 47.7092 219.09ZM47.7092 218.1C48.5392 218.1 49.2892 217.915 49.9592 217.545C50.6292 217.165 51.1542 216.645 51.5342 215.985C51.9142 215.315 52.1042 214.57 52.1042 213.75C52.1042 212.93 51.9142 212.19 51.5342 211.53C51.1542 210.86 50.6292 210.34 49.9592 209.97C49.2892 209.59 48.5392 209.4 47.7092 209.4C46.8792 209.4 46.1242 209.59 45.4442 209.97C44.7742 210.34 44.2442 210.86 43.8542 211.53C43.4742 212.19 43.2842 212.93 43.2842 213.75C43.2842 214.57 43.4742 215.315 43.8542 215.985C44.2442 216.645 44.7742 217.165 45.4442 217.545C46.1242 217.915 46.8792 218.1 47.7092 218.1ZM64.4772 208.5V219H63.5622L56.8122 210.48V219H55.7022V208.5H56.6172L63.3822 217.02V208.5H64.4772ZM75.3293 218.04V219H67.9043V208.5H75.1043V209.46H69.0143V213.195H74.4443V214.14H69.0143V218.04H75.3293ZM81.0543 214.47H84.9843V215.4H81.0543V214.47ZM93.5576 209.46H89.8676V208.5H98.3576V209.46H94.6676V219H93.5576V209.46ZM99.7008 211.11H100.766V219H99.7008V211.11ZM100.241 209.385C100.021 209.385 99.8358 209.31 99.6858 209.16C99.5358 209.01 99.4608 208.83 99.4608 208.62C99.4608 208.42 99.5358 208.245 99.6858 208.095C99.8358 207.945 100.021 207.87 100.241 207.87C100.461 207.87 100.646 207.945 100.796 208.095C100.946 208.235 101.021 208.405 101.021 208.605C101.021 208.825 100.946 209.01 100.796 209.16C100.646 209.31 100.461 209.385 100.241 209.385ZM106.999 219.075C106.219 219.075 105.519 218.905 104.899 218.565C104.289 218.225 103.809 217.75 103.459 217.14C103.109 216.52 102.934 215.825 102.934 215.055C102.934 214.285 103.109 213.595 103.459 212.985C103.809 212.375 104.289 211.9 104.899 211.56C105.519 211.22 106.219 211.05 106.999 211.05C107.679 211.05 108.284 211.185 108.814 211.455C109.354 211.715 109.779 212.1 110.089 212.61L109.294 213.15C109.034 212.76 108.704 212.47 108.304 212.28C107.904 212.08 107.469 211.98 106.999 211.98C106.429 211.98 105.914 212.11 105.454 212.37C105.004 212.62 104.649 212.98 104.389 213.45C104.139 213.92 104.014 214.455 104.014 215.055C104.014 215.665 104.139 216.205 104.389 216.675C104.649 217.135 105.004 217.495 105.454 217.755C105.914 218.005 106.429 218.13 106.999 218.13C107.469 218.13 107.904 218.035 108.304 217.845C108.704 217.655 109.034 217.365 109.294 216.975L110.089 217.515C109.779 218.025 109.354 218.415 108.814 218.685C108.274 218.945 107.669 219.075 106.999 219.075ZM114.989 215.04L113.129 216.75V219H112.064V207.87H113.129V215.415L117.839 211.11H119.159L115.784 214.335L119.474 219H118.169L114.989 215.04ZM127.621 215.385H121.021C121.081 216.205 121.396 216.87 121.966 217.38C122.536 217.88 123.256 218.13 124.126 218.13C124.616 218.13 125.066 218.045 125.476 217.875C125.886 217.695 126.241 217.435 126.541 217.095L127.141 217.785C126.791 218.205 126.351 218.525 125.821 218.745C125.301 218.965 124.726 219.075 124.096 219.075C123.286 219.075 122.566 218.905 121.936 218.565C121.316 218.215 120.831 217.735 120.481 217.125C120.131 216.515 119.956 215.825 119.956 215.055C119.956 214.285 120.121 213.595 120.451 212.985C120.791 212.375 121.251 211.9 121.831 211.56C122.421 211.22 123.081 211.05 123.811 211.05C124.541 211.05 125.196 211.22 125.776 211.56C126.356 211.9 126.811 212.375 127.141 212.985C127.471 213.585 127.636 214.275 127.636 215.055L127.621 215.385ZM123.811 211.965C123.051 211.965 122.411 212.21 121.891 212.7C121.381 213.18 121.091 213.81 121.021 214.59H126.616C126.546 213.81 126.251 213.18 125.731 212.7C125.221 212.21 124.581 211.965 123.811 211.965ZM133.958 218.52C133.758 218.7 133.508 218.84 133.208 218.94C132.918 219.03 132.613 219.075 132.293 219.075C131.553 219.075 130.983 218.875 130.583 218.475C130.183 218.075 129.983 217.51 129.983 216.78V212.01H128.573V211.11H129.983V209.385H131.048V211.11H133.448V212.01H131.048V216.72C131.048 217.19 131.163 217.55 131.393 217.8C131.633 218.04 131.973 218.16 132.413 218.16C132.633 218.16 132.843 218.125 133.043 218.055C133.253 217.985 133.433 217.885 133.583 217.755L133.958 218.52ZM138.012 219.075C137.372 219.075 136.757 218.985 136.167 218.805C135.587 218.615 135.132 218.38 134.802 218.1L135.282 217.26C135.612 217.52 136.027 217.735 136.527 217.905C137.027 218.065 137.547 218.145 138.087 218.145C138.807 218.145 139.337 218.035 139.677 217.815C140.027 217.585 140.202 217.265 140.202 216.855C140.202 216.565 140.107 216.34 139.917 216.18C139.727 216.01 139.487 215.885 139.197 215.805C138.907 215.715 138.522 215.63 138.042 215.55C137.402 215.43 136.887 215.31 136.497 215.19C136.107 215.06 135.772 214.845 135.492 214.545C135.222 214.245 135.087 213.83 135.087 213.3C135.087 212.64 135.362 212.1 135.912 211.68C136.462 211.26 137.227 211.05 138.207 211.05C138.717 211.05 139.227 211.12 139.737 211.26C140.247 211.39 140.667 211.565 140.997 211.785L140.532 212.64C139.882 212.19 139.107 211.965 138.207 211.965C137.527 211.965 137.012 212.085 136.662 212.325C136.322 212.565 136.152 212.88 136.152 213.27C136.152 213.57 136.247 213.81 136.437 213.99C136.637 214.17 136.882 214.305 137.172 214.395C137.462 214.475 137.862 214.56 138.372 214.65C139.002 214.77 139.507 214.89 139.887 215.01C140.267 215.13 140.592 215.335 140.862 215.625C141.132 215.915 141.267 216.315 141.267 216.825C141.267 217.515 140.977 218.065 140.397 218.475C139.827 218.875 139.032 219.075 138.012 219.075Z" fill="#314760"/>
<circle cx="3.5" cy="213.5" r="3.5" fill="#314760"/>
<circle cx="436.773" cy="213.773" r="1.77273" fill="#314760"/>
<circle cx="446.227" cy="213.773" r="1.77273" fill="#314760"/>
<circle cx="441.5" cy="213.773" r="1.77273" fill="#314760"/>
<path d="M28.27 260.09C27.23 260.09 26.29 259.86 25.45 259.4C24.62 258.94 23.965 258.305 23.485 257.495C23.015 256.675 22.78 255.76 22.78 254.75C22.78 253.74 23.015 252.83 23.485 252.02C23.965 251.2 24.625 250.56 25.465 250.1C26.305 249.64 27.245 249.41 28.285 249.41C29.065 249.41 29.785 249.54 30.445 249.8C31.105 250.06 31.665 250.44 32.125 250.94L31.42 251.645C30.6 250.815 29.565 250.4 28.315 250.4C27.485 250.4 26.73 250.59 26.05 250.97C25.37 251.35 24.835 251.87 24.445 252.53C24.065 253.19 23.875 253.93 23.875 254.75C23.875 255.57 24.065 256.31 24.445 256.97C24.835 257.63 25.37 258.15 26.05 258.53C26.73 258.91 27.485 259.1 28.315 259.1C29.575 259.1 30.61 258.68 31.42 257.84L32.125 258.545C31.665 259.045 31.1 259.43 30.43 259.7C29.77 259.96 29.05 260.09 28.27 260.09ZM34.4913 249.5H35.6013V259.04H41.4813V260H34.4913V249.5ZM47.7092 260.09C46.6692 260.09 45.7242 259.86 44.8742 259.4C44.0342 258.93 43.3742 258.29 42.8942 257.48C42.4242 256.67 42.1892 255.76 42.1892 254.75C42.1892 253.74 42.4242 252.83 42.8942 252.02C43.3742 251.21 44.0342 250.575 44.8742 250.115C45.7242 249.645 46.6692 249.41 47.7092 249.41C48.7492 249.41 49.6842 249.64 50.5142 250.1C51.3542 250.56 52.0142 251.2 52.4942 252.02C52.9742 252.83 53.2142 253.74 53.2142 254.75C53.2142 255.76 52.9742 256.675 52.4942 257.495C52.0142 258.305 51.3542 258.94 50.5142 259.4C49.6842 259.86 48.7492 260.09 47.7092 260.09ZM47.7092 259.1C48.5392 259.1 49.2892 258.915 49.9592 258.545C50.6292 258.165 51.1542 257.645 51.5342 256.985C51.9142 256.315 52.1042 255.57 52.1042 254.75C52.1042 253.93 51.9142 253.19 51.5342 252.53C51.1542 251.86 50.6292 251.34 49.9592 250.97C49.2892 250.59 48.5392 250.4 47.7092 250.4C46.8792 250.4 46.1242 250.59 45.4442 250.97C44.7742 251.34 44.2442 251.86 43.8542 252.53C43.4742 253.19 43.2842 253.93 43.2842 254.75C43.2842 255.57 43.4742 256.315 43.8542 256.985C44.2442 257.645 44.7742 258.165 45.4442 258.545C46.1242 258.915 46.8792 259.1 47.7092 259.1ZM64.4772 249.5V260H63.5622L56.8122 251.48V260H55.7022V249.5H56.6172L63.3822 258.02V249.5H64.4772ZM75.3293 259.04V260H67.9043V249.5H75.1043V250.46H69.0143V254.195H74.4443V255.14H69.0143V259.04H75.3293ZM81.0543 255.47H84.9843V256.4H81.0543V255.47ZM93.5576 250.46H89.8676V249.5H98.3576V250.46H94.6676V260H93.5576V250.46ZM99.7008 252.11H100.766V260H99.7008V252.11ZM100.241 250.385C100.021 250.385 99.8358 250.31 99.6858 250.16C99.5358 250.01 99.4608 249.83 99.4608 249.62C99.4608 249.42 99.5358 249.245 99.6858 249.095C99.8358 248.945 100.021 248.87 100.241 248.87C100.461 248.87 100.646 248.945 100.796 249.095C100.946 249.235 101.021 249.405 101.021 249.605C101.021 249.825 100.946 250.01 100.796 250.16C100.646 250.31 100.461 250.385 100.241 250.385ZM106.999 260.075C106.219 260.075 105.519 259.905 104.899 259.565C104.289 259.225 103.809 258.75 103.459 258.14C103.109 257.52 102.934 256.825 102.934 256.055C102.934 255.285 103.109 254.595 103.459 253.985C103.809 253.375 104.289 252.9 104.899 252.56C105.519 252.22 106.219 252.05 106.999 252.05C107.679 252.05 108.284 252.185 108.814 252.455C109.354 252.715 109.779 253.1 110.089 253.61L109.294 254.15C109.034 253.76 108.704 253.47 108.304 253.28C107.904 253.08 107.469 252.98 106.999 252.98C106.429 252.98 105.914 253.11 105.454 253.37C105.004 253.62 104.649 253.98 104.389 254.45C104.139 254.92 104.014 255.455 104.014 256.055C104.014 256.665 104.139 257.205 104.389 257.675C104.649 258.135 105.004 258.495 105.454 258.755C105.914 259.005 106.429 259.13 106.999 259.13C107.469 259.13 107.904 259.035 108.304 258.845C108.704 258.655 109.034 258.365 109.294 257.975L110.089 258.515C109.779 259.025 109.354 259.415 108.814 259.685C108.274 259.945 107.669 260.075 106.999 260.075ZM114.989 256.04L113.129 257.75V260H112.064V248.87H113.129V256.415L117.839 252.11H119.159L115.784 255.335L119.474 260H118.169L114.989 256.04ZM127.621 256.385H121.021C121.081 257.205 121.396 257.87 121.966 258.38C122.536 258.88 123.256 259.13 124.126 259.13C124.616 259.13 125.066 259.045 125.476 258.875C125.886 258.695 126.241 258.435 126.541 258.095L127.141 258.785C126.791 259.205 126.351 259.525 125.821 259.745C125.301 259.965 124.726 260.075 124.096 260.075C123.286 260.075 122.566 259.905 121.936 259.565C121.316 259.215 120.831 258.735 120.481 258.125C120.131 257.515 119.956 256.825 119.956 256.055C119.956 255.285 120.121 254.595 120.451 253.985C120.791 253.375 121.251 252.9 121.831 252.56C122.421 252.22 123.081 252.05 123.811 252.05C124.541 252.05 125.196 252.22 125.776 252.56C126.356 252.9 126.811 253.375 127.141 253.985C127.471 254.585 127.636 255.275 127.636 256.055L127.621 256.385ZM123.811 252.965C123.051 252.965 122.411 253.21 121.891 253.7C121.381 254.18 121.091 254.81 121.021 255.59H126.616C126.546 254.81 126.251 254.18 125.731 253.7C125.221 253.21 124.581 252.965 123.811 252.965ZM133.958 259.52C133.758 259.7 133.508 259.84 133.208 259.94C132.918 260.03 132.613 260.075 132.293 260.075C131.553 260.075 130.983 259.875 130.583 259.475C130.183 259.075 129.983 258.51 129.983 257.78V253.01H128.573V252.11H129.983V250.385H131.048V252.11H133.448V253.01H131.048V257.72C131.048 258.19 131.163 258.55 131.393 258.8C131.633 259.04 131.973 259.16 132.413 259.16C132.633 259.16 132.843 259.125 133.043 259.055C133.253 258.985 133.433 258.885 133.583 258.755L133.958 259.52ZM138.012 260.075C137.372 260.075 136.757 259.985 136.167 259.805C135.587 259.615 135.132 259.38 134.802 259.1L135.282 258.26C135.612 258.52 136.027 258.735 136.527 258.905C137.027 259.065 137.547 259.145 138.087 259.145C138.807 259.145 139.337 259.035 139.677 258.815C140.027 258.585 140.202 258.265 140.202 257.855C140.202 257.565 140.107 257.34 139.917 257.18C139.727 257.01 139.487 256.885 139.197 256.805C138.907 256.715 138.522 256.63 138.042 256.55C137.402 256.43 136.887 256.31 136.497 256.19C136.107 256.06 135.772 255.845 135.492 255.545C135.222 255.245 135.087 254.83 135.087 254.3C135.087 253.64 135.362 253.1 135.912 252.68C136.462 252.26 137.227 252.05 138.207 252.05C138.717 252.05 139.227 252.12 139.737 252.26C140.247 252.39 140.667 252.565 140.997 252.785L140.532 253.64C139.882 253.19 139.107 252.965 138.207 252.965C137.527 252.965 137.012 253.085 136.662 253.325C136.322 253.565 136.152 253.88 136.152 254.27C136.152 254.57 136.247 254.81 136.437 254.99C136.637 255.17 136.882 255.305 137.172 255.395C137.462 255.475 137.862 255.56 138.372 255.65C139.002 255.77 139.507 255.89 139.887 256.01C140.267 256.13 140.592 256.335 140.862 256.625C141.132 256.915 141.267 257.315 141.267 257.825C141.267 258.515 140.977 259.065 140.397 259.475C139.827 259.875 139.032 260.075 138.012 260.075Z" fill="#314760"/>
<circle cx="3.5" cy="254.5" r="3.5" fill="#314760"/>
<circle cx="436.773" cy="254.773" r="1.77273" fill="#314760"/>
<circle cx="446.227" cy="254.773" r="1.77273" fill="#314760"/>
<circle cx="441.5" cy="254.773" r="1.77273" fill="#314760"/>
<path d="M28.27 301.09C27.23 301.09 26.29 300.86 25.45 300.4C24.62 299.94 23.965 299.305 23.485 298.495C23.015 297.675 22.78 296.76 22.78 295.75C22.78 294.74 23.015 293.83 23.485 293.02C23.965 292.2 24.625 291.56 25.465 291.1C26.305 290.64 27.245 290.41 28.285 290.41C29.065 290.41 29.785 290.54 30.445 290.8C31.105 291.06 31.665 291.44 32.125 291.94L31.42 292.645C30.6 291.815 29.565 291.4 28.315 291.4C27.485 291.4 26.73 291.59 26.05 291.97C25.37 292.35 24.835 292.87 24.445 293.53C24.065 294.19 23.875 294.93 23.875 295.75C23.875 296.57 24.065 297.31 24.445 297.97C24.835 298.63 25.37 299.15 26.05 299.53C26.73 299.91 27.485 300.1 28.315 300.1C29.575 300.1 30.61 299.68 31.42 298.84L32.125 299.545C31.665 300.045 31.1 300.43 30.43 300.7C29.77 300.96 29.05 301.09 28.27 301.09ZM34.4913 290.5H35.6013V300.04H41.4813V301H34.4913V290.5ZM47.7092 301.09C46.6692 301.09 45.7242 300.86 44.8742 300.4C44.0342 299.93 43.3742 299.29 42.8942 298.48C42.4242 297.67 42.1892 296.76 42.1892 295.75C42.1892 294.74 42.4242 293.83 42.8942 293.02C43.3742 292.21 44.0342 291.575 44.8742 291.115C45.7242 290.645 46.6692 290.41 47.7092 290.41C48.7492 290.41 49.6842 290.64 50.5142 291.1C51.3542 291.56 52.0142 292.2 52.4942 293.02C52.9742 293.83 53.2142 294.74 53.2142 295.75C53.2142 296.76 52.9742 297.675 52.4942 298.495C52.0142 299.305 51.3542 299.94 50.5142 300.4C49.6842 300.86 48.7492 301.09 47.7092 301.09ZM47.7092 300.1C48.5392 300.1 49.2892 299.915 49.9592 299.545C50.6292 299.165 51.1542 298.645 51.5342 297.985C51.9142 297.315 52.1042 296.57 52.1042 295.75C52.1042 294.93 51.9142 294.19 51.5342 293.53C51.1542 292.86 50.6292 292.34 49.9592 291.97C49.2892 291.59 48.5392 291.4 47.7092 291.4C46.8792 291.4 46.1242 291.59 45.4442 291.97C44.7742 292.34 44.2442 292.86 43.8542 293.53C43.4742 294.19 43.2842 294.93 43.2842 295.75C43.2842 296.57 43.4742 297.315 43.8542 297.985C44.2442 298.645 44.7742 299.165 45.4442 299.545C46.1242 299.915 46.8792 300.1 47.7092 300.1ZM64.4772 290.5V301H63.5622L56.8122 292.48V301H55.7022V290.5H56.6172L63.3822 299.02V290.5H64.4772ZM75.3293 300.04V301H67.9043V290.5H75.1043V291.46H69.0143V295.195H74.4443V296.14H69.0143V300.04H75.3293ZM81.0543 296.47H84.9843V297.4H81.0543V296.47ZM93.5576 291.46H89.8676V290.5H98.3576V291.46H94.6676V301H93.5576V291.46ZM99.7008 293.11H100.766V301H99.7008V293.11ZM100.241 291.385C100.021 291.385 99.8358 291.31 99.6858 291.16C99.5358 291.01 99.4608 290.83 99.4608 290.62C99.4608 290.42 99.5358 290.245 99.6858 290.095C99.8358 289.945 100.021 289.87 100.241 289.87C100.461 289.87 100.646 289.945 100.796 290.095C100.946 290.235 101.021 290.405 101.021 290.605C101.021 290.825 100.946 291.01 100.796 291.16C100.646 291.31 100.461 291.385 100.241 291.385ZM106.999 301.075C106.219 301.075 105.519 300.905 104.899 300.565C104.289 300.225 103.809 299.75 103.459 299.14C103.109 298.52 102.934 297.825 102.934 297.055C102.934 296.285 103.109 295.595 103.459 294.985C103.809 294.375 104.289 293.9 104.899 293.56C105.519 293.22 106.219 293.05 106.999 293.05C107.679 293.05 108.284 293.185 108.814 293.455C109.354 293.715 109.779 294.1 110.089 294.61L109.294 295.15C109.034 294.76 108.704 294.47 108.304 294.28C107.904 294.08 107.469 293.98 106.999 293.98C106.429 293.98 105.914 294.11 105.454 294.37C105.004 294.62 104.649 294.98 104.389 295.45C104.139 295.92 104.014 296.455 104.014 297.055C104.014 297.665 104.139 298.205 104.389 298.675C104.649 299.135 105.004 299.495 105.454 299.755C105.914 300.005 106.429 300.13 106.999 300.13C107.469 300.13 107.904 300.035 108.304 299.845C108.704 299.655 109.034 299.365 109.294 298.975L110.089 299.515C109.779 300.025 109.354 300.415 108.814 300.685C108.274 300.945 107.669 301.075 106.999 301.075ZM114.989 297.04L113.129 298.75V301H112.064V289.87H113.129V297.415L117.839 293.11H119.159L115.784 296.335L119.474 301H118.169L114.989 297.04ZM127.621 297.385H121.021C121.081 298.205 121.396 298.87 121.966 299.38C122.536 299.88 123.256 300.13 124.126 300.13C124.616 300.13 125.066 300.045 125.476 299.875C125.886 299.695 126.241 299.435 126.541 299.095L127.141 299.785C126.791 300.205 126.351 300.525 125.821 300.745C125.301 300.965 124.726 301.075 124.096 301.075C123.286 301.075 122.566 300.905 121.936 300.565C121.316 300.215 120.831 299.735 120.481 299.125C120.131 298.515 119.956 297.825 119.956 297.055C119.956 296.285 120.121 295.595 120.451 294.985C120.791 294.375 121.251 293.9 121.831 293.56C122.421 293.22 123.081 293.05 123.811 293.05C124.541 293.05 125.196 293.22 125.776 293.56C126.356 293.9 126.811 294.375 127.141 294.985C127.471 295.585 127.636 296.275 127.636 297.055L127.621 297.385ZM123.811 293.965C123.051 293.965 122.411 294.21 121.891 294.7C121.381 295.18 121.091 295.81 121.021 296.59H126.616C126.546 295.81 126.251 295.18 125.731 294.7C125.221 294.21 124.581 293.965 123.811 293.965ZM133.958 300.52C133.758 300.7 133.508 300.84 133.208 300.94C132.918 301.03 132.613 301.075 132.293 301.075C131.553 301.075 130.983 300.875 130.583 300.475C130.183 300.075 129.983 299.51 129.983 298.78V294.01H128.573V293.11H129.983V291.385H131.048V293.11H133.448V294.01H131.048V298.72C131.048 299.19 131.163 299.55 131.393 299.8C131.633 300.04 131.973 300.16 132.413 300.16C132.633 300.16 132.843 300.125 133.043 300.055C133.253 299.985 133.433 299.885 133.583 299.755L133.958 300.52ZM138.012 301.075C137.372 301.075 136.757 300.985 136.167 300.805C135.587 300.615 135.132 300.38 134.802 300.1L135.282 299.26C135.612 299.52 136.027 299.735 136.527 299.905C137.027 300.065 137.547 300.145 138.087 300.145C138.807 300.145 139.337 300.035 139.677 299.815C140.027 299.585 140.202 299.265 140.202 298.855C140.202 298.565 140.107 298.34 139.917 298.18C139.727 298.01 139.487 297.885 139.197 297.805C138.907 297.715 138.522 297.63 138.042 297.55C137.402 297.43 136.887 297.31 136.497 297.19C136.107 297.06 135.772 296.845 135.492 296.545C135.222 296.245 135.087 295.83 135.087 295.3C135.087 294.64 135.362 294.1 135.912 293.68C136.462 293.26 137.227 293.05 138.207 293.05C138.717 293.05 139.227 293.12 139.737 293.26C140.247 293.39 140.667 293.565 140.997 293.785L140.532 294.64C139.882 294.19 139.107 293.965 138.207 293.965C137.527 293.965 137.012 294.085 136.662 294.325C136.322 294.565 136.152 294.88 136.152 295.27C136.152 295.57 136.247 295.81 136.437 295.99C136.637 296.17 136.882 296.305 137.172 296.395C137.462 296.475 137.862 296.56 138.372 296.65C139.002 296.77 139.507 296.89 139.887 297.01C140.267 297.13 140.592 297.335 140.862 297.625C141.132 297.915 141.267 298.315 141.267 298.825C141.267 299.515 140.977 300.065 140.397 300.475C139.827 300.875 139.032 301.075 138.012 301.075Z" fill="#314760"/>
<circle cx="3.5" cy="295.5" r="3.5" fill="#314760"/>
<circle cx="436.773" cy="295.773" r="1.77273" fill="#314760"/>
<circle cx="446.227" cy="295.773" r="1.77273" fill="#314760"/>
<circle cx="441.5" cy="295.773" r="1.77273" fill="#314760"/>
<path d="M15.138 4.4V17H13.86V6.92L8.91 15.398H8.28L3.33 6.974V17H2.052V4.4H3.15L8.622 13.742L14.04 4.4H15.138ZM19.2434 4.4H20.5754V15.848H27.6314V17H19.2434V4.4ZM33.1764 17.108C32.2404 17.108 31.3404 16.958 30.4764 16.658C29.6244 16.358 28.9644 15.962 28.4964 15.47L29.0184 14.444C29.4744 14.9 30.0804 15.272 30.8364 15.56C31.5924 15.836 32.3724 15.974 33.1764 15.974C34.3044 15.974 35.1504 15.77 35.7144 15.362C36.2784 14.942 36.5604 14.402 36.5604 13.742C36.5604 13.238 36.4044 12.836 36.0924 12.536C35.7924 12.236 35.4204 12.008 34.9764 11.852C34.5324 11.684 33.9144 11.504 33.1224 11.312C32.1744 11.072 31.4184 10.844 30.8544 10.628C30.2904 10.4 29.8044 10.058 29.3964 9.602C29.0004 9.146 28.8024 8.528 28.8024 7.748C28.8024 7.112 28.9704 6.536 29.3064 6.02C29.6424 5.492 30.1584 5.072 30.8544 4.76C31.5504 4.448 32.4144 4.292 33.4464 4.292C34.1664 4.292 34.8684 4.394 35.5524 4.598C36.2484 4.79 36.8484 5.06 37.3524 5.408L36.9024 6.47C36.3744 6.122 35.8104 5.864 35.2104 5.696C34.6104 5.516 34.0224 5.426 33.4464 5.426C32.3424 5.426 31.5084 5.642 30.9444 6.074C30.3924 6.494 30.1164 7.04 30.1164 7.712C30.1164 8.216 30.2664 8.624 30.5664 8.936C30.8784 9.236 31.2624 9.47 31.7184 9.638C32.1864 9.794 32.8104 9.968 33.5904 10.16C34.5144 10.388 35.2584 10.616 35.8224 10.844C36.3984 11.06 36.8844 11.396 37.2804 11.852C37.6764 12.296 37.8744 12.902 37.8744 13.67C37.8744 14.306 37.7004 14.888 37.3524 15.416C37.0164 15.932 36.4944 16.346 35.7864 16.658C35.0784 16.958 34.2084 17.108 33.1764 17.108ZM49.6866 15.848V17H40.7766V4.4H49.4166V5.552H42.1086V10.034H48.6246V11.168H42.1086V15.848H49.6866Z" fill="#4B6077"/>
</svg>
