<svg width="470" height="248" viewBox="0 0 470 248" fill="none" xmlns="http://www.w3.org/2000/svg">
<path opacity="0.6" d="M0 10C0 4.47715 4.47715 0 10 0H459C464.523 0 469 4.47715 469 10V64C469 69.5229 464.523 74 459 74H10C4.47715 74 0 69.5229 0 64V10Z" fill="white"/>
<path d="M404.339 21.096V30H403.523V28.752C403.267 29.176 402.927 29.5 402.503 29.724C402.087 29.948 401.615 30.06 401.087 30.06C400.495 30.06 399.959 29.924 399.479 29.652C398.999 29.38 398.623 29 398.351 28.512C398.079 28.024 397.943 27.468 397.943 26.844C397.943 26.22 398.079 25.664 398.351 25.176C398.623 24.688 398.999 24.312 399.479 24.048C399.959 23.776 400.495 23.64 401.087 23.64C401.599 23.64 402.059 23.748 402.467 23.964C402.883 24.172 403.223 24.48 403.487 24.888V21.096H404.339ZM401.159 29.304C401.599 29.304 401.995 29.204 402.347 29.004C402.707 28.796 402.987 28.504 403.187 28.128C403.395 27.752 403.499 27.324 403.499 26.844C403.499 26.364 403.395 25.936 403.187 25.56C402.987 25.184 402.707 24.896 402.347 24.696C401.995 24.488 401.599 24.384 401.159 24.384C400.711 24.384 400.307 24.488 399.947 24.696C399.595 24.896 399.315 25.184 399.107 25.56C398.907 25.936 398.807 26.364 398.807 26.844C398.807 27.324 398.907 27.752 399.107 28.128C399.315 28.504 399.595 28.796 399.947 29.004C400.307 29.204 400.711 29.304 401.159 29.304ZM406.711 23.688H407.563V30H406.711V23.688ZM407.143 22.308C406.967 22.308 406.819 22.248 406.699 22.128C406.579 22.008 406.519 21.864 406.519 21.696C406.519 21.536 406.579 21.396 406.699 21.276C406.819 21.156 406.967 21.096 407.143 21.096C407.319 21.096 407.467 21.156 407.587 21.276C407.707 21.388 407.767 21.524 407.767 21.684C407.767 21.86 407.707 22.008 407.587 22.128C407.467 22.248 407.319 22.308 407.143 22.308ZM411.626 30.06C411.114 30.06 410.622 29.988 410.15 29.844C409.686 29.692 409.322 29.504 409.058 29.28L409.442 28.608C409.706 28.816 410.038 28.988 410.438 29.124C410.838 29.252 411.254 29.316 411.686 29.316C412.262 29.316 412.686 29.228 412.958 29.052C413.238 28.868 413.378 28.612 413.378 28.284C413.378 28.052 413.302 27.872 413.15 27.744C412.998 27.608 412.806 27.508 412.574 27.444C412.342 27.372 412.034 27.304 411.65 27.24C411.138 27.144 410.726 27.048 410.414 26.952C410.102 26.848 409.834 26.676 409.61 26.436C409.394 26.196 409.286 25.864 409.286 25.44C409.286 24.912 409.506 24.48 409.946 24.144C410.386 23.808 410.998 23.64 411.782 23.64C412.19 23.64 412.598 23.696 413.006 23.808C413.414 23.912 413.75 24.052 414.014 24.228L413.642 24.912C413.122 24.552 412.502 24.372 411.782 24.372C411.238 24.372 410.826 24.468 410.546 24.66C410.274 24.852 410.138 25.104 410.138 25.416C410.138 25.656 410.214 25.848 410.366 25.992C410.526 26.136 410.722 26.244 410.954 26.316C411.186 26.38 411.506 26.448 411.914 26.52C412.418 26.616 412.822 26.712 413.126 26.808C413.43 26.904 413.69 27.068 413.906 27.3C414.122 27.532 414.23 27.852 414.23 28.26C414.23 28.812 413.998 29.252 413.534 29.58C413.078 29.9 412.442 30.06 411.626 30.06ZM423.677 23.64C424.469 23.64 425.089 23.868 425.537 24.324C425.993 24.78 426.221 25.452 426.221 26.34V30H425.369V26.424C425.369 25.768 425.209 25.268 424.889 24.924C424.577 24.58 424.133 24.408 423.557 24.408C422.901 24.408 422.385 24.612 422.009 25.02C421.633 25.42 421.445 25.976 421.445 26.688V30H420.593V26.424C420.593 25.768 420.433 25.268 420.113 24.924C419.801 24.58 419.353 24.408 418.769 24.408C418.121 24.408 417.605 24.612 417.221 25.02C416.845 25.42 416.657 25.976 416.657 26.688V30H415.805V23.688H416.621V24.84C416.845 24.456 417.157 24.16 417.557 23.952C417.957 23.744 418.417 23.64 418.937 23.64C419.465 23.64 419.921 23.752 420.305 23.976C420.697 24.2 420.989 24.532 421.181 24.972C421.413 24.556 421.745 24.232 422.177 24C422.617 23.76 423.117 23.64 423.677 23.64ZM428.532 23.688H429.384V30H428.532V23.688ZM428.964 22.308C428.788 22.308 428.64 22.248 428.52 22.128C428.4 22.008 428.34 21.864 428.34 21.696C428.34 21.536 428.4 21.396 428.52 21.276C428.64 21.156 428.788 21.096 428.964 21.096C429.14 21.096 429.288 21.156 429.408 21.276C429.528 21.388 429.588 21.524 429.588 21.684C429.588 21.86 429.528 22.008 429.408 22.128C429.288 22.248 429.14 22.308 428.964 22.308ZM433.446 30.06C432.934 30.06 432.442 29.988 431.97 29.844C431.506 29.692 431.142 29.504 430.878 29.28L431.262 28.608C431.526 28.816 431.858 28.988 432.258 29.124C432.658 29.252 433.074 29.316 433.506 29.316C434.082 29.316 434.506 29.228 434.778 29.052C435.058 28.868 435.198 28.612 435.198 28.284C435.198 28.052 435.122 27.872 434.97 27.744C434.818 27.608 434.626 27.508 434.394 27.444C434.162 27.372 433.854 27.304 433.47 27.24C432.958 27.144 432.546 27.048 432.234 26.952C431.922 26.848 431.654 26.676 431.43 26.436C431.214 26.196 431.106 25.864 431.106 25.44C431.106 24.912 431.326 24.48 431.766 24.144C432.206 23.808 432.818 23.64 433.602 23.64C434.01 23.64 434.418 23.696 434.826 23.808C435.234 23.912 435.57 24.052 435.834 24.228L435.462 24.912C434.942 24.552 434.322 24.372 433.602 24.372C433.058 24.372 432.646 24.468 432.366 24.66C432.094 24.852 431.958 25.104 431.958 25.416C431.958 25.656 432.034 25.848 432.186 25.992C432.346 26.136 432.542 26.244 432.774 26.316C433.006 26.38 433.326 26.448 433.734 26.52C434.238 26.616 434.642 26.712 434.946 26.808C435.25 26.904 435.51 27.068 435.726 27.3C435.942 27.532 436.05 27.852 436.05 28.26C436.05 28.812 435.818 29.252 435.354 29.58C434.898 29.9 434.262 30.06 433.446 30.06ZM439.318 30.06C438.806 30.06 438.314 29.988 437.842 29.844C437.378 29.692 437.014 29.504 436.75 29.28L437.134 28.608C437.398 28.816 437.73 28.988 438.13 29.124C438.53 29.252 438.946 29.316 439.378 29.316C439.954 29.316 440.378 29.228 440.65 29.052C440.93 28.868 441.07 28.612 441.07 28.284C441.07 28.052 440.994 27.872 440.842 27.744C440.69 27.608 440.498 27.508 440.266 27.444C440.034 27.372 439.726 27.304 439.342 27.24C438.83 27.144 438.418 27.048 438.106 26.952C437.794 26.848 437.526 26.676 437.302 26.436C437.086 26.196 436.978 25.864 436.978 25.44C436.978 24.912 437.198 24.48 437.638 24.144C438.078 23.808 438.69 23.64 439.474 23.64C439.882 23.64 440.29 23.696 440.698 23.808C441.106 23.912 441.442 24.052 441.706 24.228L441.334 24.912C440.814 24.552 440.194 24.372 439.474 24.372C438.93 24.372 438.518 24.468 438.238 24.66C437.966 24.852 437.83 25.104 437.83 25.416C437.83 25.656 437.906 25.848 438.058 25.992C438.218 26.136 438.414 26.244 438.646 26.316C438.878 26.38 439.198 26.448 439.605 26.52C440.11 26.616 440.514 26.712 440.818 26.808C441.122 26.904 441.382 27.068 441.598 27.3C441.814 27.532 441.922 27.852 441.922 28.26C441.922 28.812 441.69 29.252 441.226 29.58C440.77 29.9 440.134 30.06 439.318 30.06ZM453.798 30L451.794 27.36L449.778 30H448.818L451.314 26.76L448.938 23.688H449.898L451.794 26.16L453.69 23.688H454.626L452.25 26.76L454.77 30H453.798Z" fill="#EF878D"/>
<path d="M29.774 24.2V34H28.78V26.16L24.93 32.754H24.44L20.59 26.202V34H19.596V24.2H20.45L24.706 31.466L28.92 24.2H29.774ZM32.9671 24.2H34.0031V33.104H39.4911V34H32.9671V24.2ZM43.8039 34.084C43.0759 34.084 42.3759 33.9673 41.7039 33.734C41.0412 33.5007 40.5279 33.1927 40.1639 32.81L40.5699 32.012C40.9245 32.3667 41.3959 32.656 41.9839 32.88C42.5719 33.0947 43.1785 33.202 43.8039 33.202C44.6812 33.202 45.3392 33.0433 45.7779 32.726C46.2165 32.3993 46.4359 31.9793 46.4359 31.466C46.4359 31.074 46.3145 30.7613 46.0719 30.528C45.8385 30.2947 45.5492 30.1173 45.2039 29.996C44.8585 29.8653 44.3779 29.7253 43.7619 29.576C43.0245 29.3893 42.4365 29.212 41.9979 29.044C41.5592 28.8667 41.1812 28.6007 40.8639 28.246C40.5559 27.8913 40.4019 27.4107 40.4019 26.804C40.4019 26.3093 40.5325 25.8613 40.7939 25.46C41.0552 25.0493 41.4565 24.7227 41.9979 24.48C42.5392 24.2373 43.2112 24.116 44.0139 24.116C44.5739 24.116 45.1199 24.1953 45.6519 24.354C46.1932 24.5033 46.6599 24.7133 47.0519 24.984L46.7019 25.81C46.2912 25.5393 45.8525 25.3387 45.3859 25.208C44.9192 25.068 44.4619 24.998 44.0139 24.998C43.1552 24.998 42.5065 25.166 42.0679 25.502C41.6385 25.8287 41.4239 26.2533 41.4239 26.776C41.4239 27.168 41.5405 27.4853 41.7739 27.728C42.0165 27.9613 42.3152 28.1433 42.6699 28.274C43.0339 28.3953 43.5192 28.5307 44.1259 28.68C44.8445 28.8573 45.4232 29.0347 45.8619 29.212C46.3099 29.38 46.6879 29.6413 46.9959 29.996C47.3039 30.3413 47.4579 30.8127 47.4579 31.41C47.4579 31.9047 47.3225 32.3573 47.0519 32.768C46.7905 33.1693 46.3845 33.4913 45.8339 33.734C45.2832 33.9673 44.6065 34.084 43.8039 34.084ZM56.6451 33.104V34H49.7151V24.2H56.4351V25.096H50.7511V28.582H55.8191V29.464H50.7511V33.104H56.6451ZM65.4464 34.084C64.7184 34.084 64.0184 33.9673 63.3464 33.734C62.6838 33.5007 62.1704 33.1927 61.8064 32.81L62.2124 32.012C62.5671 32.3667 63.0384 32.656 63.6264 32.88C64.2144 33.0947 64.8211 33.202 65.4464 33.202C66.3238 33.202 66.9818 33.0433 67.4204 32.726C67.8591 32.3993 68.0784 31.9793 68.0784 31.466C68.0784 31.074 67.9571 30.7613 67.7144 30.528C67.4811 30.2947 67.1918 30.1173 66.8464 29.996C66.5011 29.8653 66.0204 29.7253 65.4044 29.576C64.6671 29.3893 64.0791 29.212 63.6404 29.044C63.2018 28.8667 62.8238 28.6007 62.5064 28.246C62.1984 27.8913 62.0444 27.4107 62.0444 26.804C62.0444 26.3093 62.1751 25.8613 62.4364 25.46C62.6978 25.0493 63.0991 24.7227 63.6404 24.48C64.1818 24.2373 64.8538 24.116 65.6564 24.116C66.2164 24.116 66.7624 24.1953 67.2944 24.354C67.8358 24.5033 68.3024 24.7133 68.6944 24.984L68.3444 25.81C67.9338 25.5393 67.4951 25.3387 67.0284 25.208C66.5618 25.068 66.1044 24.998 65.6564 24.998C64.7978 24.998 64.1491 25.166 63.7104 25.502C63.2811 25.8287 63.0664 26.2533 63.0664 26.776C63.0664 27.168 63.1831 27.4853 63.4164 27.728C63.6591 27.9613 63.9578 28.1433 64.3124 28.274C64.6764 28.3953 65.1618 28.5307 65.7684 28.68C66.4871 28.8573 67.0658 29.0347 67.5044 29.212C67.9524 29.38 68.3304 29.6413 68.6384 29.996C68.9464 30.3413 69.1004 30.8127 69.1004 31.41C69.1004 31.9047 68.9651 32.3573 68.6944 32.768C68.4331 33.1693 68.0271 33.4913 67.4764 33.734C66.9258 33.9673 66.2491 34.084 65.4464 34.084ZM75.0257 33.552C74.8391 33.72 74.6057 33.8507 74.3257 33.944C74.0551 34.028 73.7704 34.07 73.4717 34.07C72.7811 34.07 72.2491 33.8833 71.8757 33.51C71.5024 33.1367 71.3157 32.6093 71.3157 31.928V27.476H69.9997V26.636H71.3157V25.026H72.3097V26.636H74.5497V27.476H72.3097V31.872C72.3097 32.3107 72.4171 32.6467 72.6317 32.88C72.8557 33.104 73.1731 33.216 73.5837 33.216C73.7891 33.216 73.9851 33.1833 74.1717 33.118C74.3677 33.0527 74.5357 32.9593 74.6757 32.838L75.0257 33.552ZM79.4112 26.58C80.3726 26.58 81.1099 26.8227 81.6232 27.308C82.1366 27.784 82.3932 28.4933 82.3932 29.436V34H81.4412V32.852C81.2172 33.2347 80.8859 33.5333 80.4472 33.748C80.0179 33.9627 79.5046 34.07 78.9072 34.07C78.0859 34.07 77.4326 33.874 76.9472 33.482C76.4619 33.09 76.2192 32.572 76.2192 31.928C76.2192 31.3027 76.4432 30.7987 76.8912 30.416C77.3486 30.0333 78.0719 29.842 79.0612 29.842H81.3992V29.394C81.3992 28.7593 81.2219 28.2787 80.8672 27.952C80.5126 27.616 79.9946 27.448 79.3132 27.448C78.8466 27.448 78.3986 27.5273 77.9692 27.686C77.5399 27.8353 77.1712 28.0453 76.8632 28.316L76.4152 27.574C76.7886 27.2567 77.2366 27.014 77.7592 26.846C78.2819 26.6687 78.8326 26.58 79.4112 26.58ZM79.0612 33.286C79.6212 33.286 80.1019 33.16 80.5032 32.908C80.9046 32.6467 81.2032 32.2733 81.3992 31.788V30.584H79.0892C77.8292 30.584 77.1992 31.0227 77.1992 31.9C77.1992 32.3293 77.3626 32.67 77.6892 32.922C78.0159 33.1647 78.4732 33.286 79.0612 33.286ZM88.845 26.58C89.769 26.58 90.5017 26.8507 91.043 27.392C91.5937 27.924 91.869 28.7033 91.869 29.73V34H90.875V29.828C90.875 29.0627 90.6837 28.4793 90.301 28.078C89.9184 27.6767 89.3724 27.476 88.663 27.476C87.8697 27.476 87.2397 27.714 86.773 28.19C86.3157 28.6567 86.087 29.3053 86.087 30.136V34H85.093V26.636H86.045V27.994C86.3157 27.546 86.689 27.2007 87.165 26.958C87.6504 26.706 88.2104 26.58 88.845 26.58ZM101.315 23.612V34H100.363V32.544C100.064 33.0387 99.6677 33.4167 99.173 33.678C98.6877 33.9393 98.137 34.07 97.521 34.07C96.8303 34.07 96.205 33.9113 95.645 33.594C95.085 33.2767 94.6463 32.8333 94.329 32.264C94.0117 31.6947 93.853 31.046 93.853 30.318C93.853 29.59 94.0117 28.9413 94.329 28.372C94.6463 27.8027 95.085 27.364 95.645 27.056C96.205 26.7387 96.8303 26.58 97.521 26.58C98.1183 26.58 98.655 26.706 99.131 26.958C99.6163 27.2007 100.013 27.56 100.321 28.036V23.612H101.315ZM97.605 33.188C98.1183 33.188 98.5803 33.0713 98.991 32.838C99.411 32.5953 99.7377 32.2547 99.971 31.816C100.214 31.3773 100.335 30.878 100.335 30.318C100.335 29.758 100.214 29.2587 99.971 28.82C99.7377 28.3813 99.411 28.0453 98.991 27.812C98.5803 27.5693 98.1183 27.448 97.605 27.448C97.0823 27.448 96.611 27.5693 96.191 27.812C95.7803 28.0453 95.4537 28.3813 95.211 28.82C94.9777 29.2587 94.861 29.758 94.861 30.318C94.861 30.878 94.9777 31.3773 95.211 31.816C95.4537 32.2547 95.7803 32.5953 96.191 32.838C96.611 33.0713 97.0823 33.188 97.605 33.188ZM111.905 34.084C110.636 34.084 109.647 33.72 108.937 32.992C108.228 32.264 107.873 31.2047 107.873 29.814V24.2H108.909V29.772C108.909 30.9107 109.166 31.76 109.679 32.32C110.193 32.88 110.935 33.16 111.905 33.16C112.885 33.16 113.632 32.88 114.145 32.32C114.659 31.76 114.915 30.9107 114.915 29.772V24.2H115.923V29.814C115.923 31.2047 115.569 32.264 114.859 32.992C114.159 33.72 113.175 34.084 111.905 34.084ZM122.629 26.58C123.32 26.58 123.945 26.7387 124.505 27.056C125.065 27.364 125.504 27.8027 125.821 28.372C126.139 28.9413 126.297 29.59 126.297 30.318C126.297 31.0553 126.139 31.7087 125.821 32.278C125.504 32.8473 125.065 33.2907 124.505 33.608C123.955 33.916 123.329 34.07 122.629 34.07C122.032 34.07 121.491 33.9487 121.005 33.706C120.529 33.454 120.137 33.09 119.829 32.614V36.716H118.835V26.636H119.787V28.092C120.086 27.6067 120.478 27.2333 120.963 26.972C121.458 26.7107 122.013 26.58 122.629 26.58ZM122.559 33.188C123.073 33.188 123.539 33.0713 123.959 32.838C124.379 32.5953 124.706 32.2547 124.939 31.816C125.182 31.3773 125.303 30.878 125.303 30.318C125.303 29.758 125.182 29.2633 124.939 28.834C124.706 28.3953 124.379 28.0547 123.959 27.812C123.539 27.5693 123.073 27.448 122.559 27.448C122.037 27.448 121.565 27.5693 121.145 27.812C120.735 28.0547 120.408 28.3953 120.165 28.834C119.932 29.2633 119.815 29.758 119.815 30.318C119.815 30.878 119.932 31.3773 120.165 31.816C120.408 32.2547 120.735 32.5953 121.145 32.838C121.565 33.0713 122.037 33.188 122.559 33.188Z" fill="#314760"/>
<path opacity="0.5" d="M21.444 47.2V57H20.436V48.096H18.126V47.2H21.444ZM26.5026 47.2V57H25.4946V48.096H23.1846V47.2H26.5026ZM29.6012 51.106C29.3959 51.106 29.2185 51.0313 29.0692 50.882C28.9292 50.7327 28.8592 50.5507 28.8592 50.336C28.8592 50.1213 28.9292 49.944 29.0692 49.804C29.2185 49.6547 29.3959 49.58 29.6012 49.58C29.8065 49.58 29.9839 49.6547 30.1332 49.804C30.2825 49.944 30.3572 50.1213 30.3572 50.336C30.3572 50.5507 30.2825 50.7327 30.1332 50.882C29.9839 51.0313 29.8065 51.106 29.6012 51.106ZM29.6012 57.07C29.3959 57.07 29.2185 56.9953 29.0692 56.846C28.9292 56.6967 28.8592 56.5147 28.8592 56.3C28.8592 56.0853 28.9292 55.908 29.0692 55.768C29.2185 55.6187 29.3959 55.544 29.6012 55.544C29.8065 55.544 29.9839 55.6187 30.1332 55.768C30.2825 55.908 30.3572 56.0853 30.3572 56.3C30.3572 56.5147 30.2825 56.6967 30.1332 56.846C29.9839 56.9953 29.8065 57.07 29.6012 57.07ZM35.718 57.084C34.962 57.084 34.2853 56.8833 33.688 56.482C33.1 56.0807 32.638 55.5067 32.302 54.76C31.9753 54.004 31.812 53.1173 31.812 52.1C31.812 51.0827 31.9753 50.2007 32.302 49.454C32.638 48.698 33.1 48.1193 33.688 47.718C34.2853 47.3167 34.962 47.116 35.718 47.116C36.474 47.116 37.146 47.3167 37.734 47.718C38.3313 48.1193 38.798 48.698 39.134 49.454C39.47 50.2007 39.638 51.0827 39.638 52.1C39.638 53.1173 39.47 54.004 39.134 54.76C38.798 55.5067 38.3313 56.0807 37.734 56.482C37.146 56.8833 36.474 57.084 35.718 57.084ZM35.718 56.16C36.2873 56.16 36.7867 56.0013 37.216 55.684C37.6547 55.3667 37.9953 54.9047 38.238 54.298C38.4807 53.6913 38.602 52.9587 38.602 52.1C38.602 51.2413 38.4807 50.5087 38.238 49.902C37.9953 49.2953 37.6547 48.8333 37.216 48.516C36.7867 48.1987 36.2873 48.04 35.718 48.04C35.1487 48.04 34.6447 48.1987 34.206 48.516C33.7767 48.8333 33.4407 49.2953 33.198 49.902C32.9553 50.5087 32.834 51.2413 32.834 52.1C32.834 52.9587 32.9553 53.6913 33.198 54.298C33.4407 54.9047 33.7767 55.3667 34.206 55.684C34.6447 56.0013 35.1487 56.16 35.718 56.16ZM44.9875 57.084C44.2315 57.084 43.5548 56.8833 42.9575 56.482C42.3695 56.0807 41.9075 55.5067 41.5715 54.76C41.2448 54.004 41.0815 53.1173 41.0815 52.1C41.0815 51.0827 41.2448 50.2007 41.5715 49.454C41.9075 48.698 42.3695 48.1193 42.9575 47.718C43.5548 47.3167 44.2315 47.116 44.9875 47.116C45.7435 47.116 46.4155 47.3167 47.0035 47.718C47.6008 48.1193 48.0675 48.698 48.4035 49.454C48.7395 50.2007 48.9075 51.0827 48.9075 52.1C48.9075 53.1173 48.7395 54.004 48.4035 54.76C48.0675 55.5067 47.6008 56.0807 47.0035 56.482C46.4155 56.8833 45.7435 57.084 44.9875 57.084ZM44.9875 56.16C45.5568 56.16 46.0562 56.0013 46.4855 55.684C46.9242 55.3667 47.2648 54.9047 47.5075 54.298C47.7502 53.6913 47.8715 52.9587 47.8715 52.1C47.8715 51.2413 47.7502 50.5087 47.5075 49.902C47.2648 49.2953 46.9242 48.8333 46.4855 48.516C46.0562 48.1987 45.5568 48.04 44.9875 48.04C44.4182 48.04 43.9142 48.1987 43.4755 48.516C43.0462 48.8333 42.7102 49.2953 42.4675 49.902C42.2248 50.5087 42.1035 51.2413 42.1035 52.1C42.1035 52.9587 42.2248 53.6913 42.4675 54.298C42.7102 54.9047 43.0462 55.3667 43.4755 55.684C43.9142 56.0013 44.4182 56.16 44.9875 56.16ZM61.0291 54.382H55.5691L54.3931 57H53.3151L57.7951 47.2H58.8171L63.2971 57H62.2051L61.0291 54.382ZM60.6511 53.542L58.2991 48.278L55.9471 53.542H60.6511ZM75.0963 47.2V57H74.1023V49.16L70.2523 55.754H69.7623L65.9123 49.202V57H64.9183V47.2H65.7723L70.0283 54.466L74.2423 47.2H75.0963ZM81.1974 52.772H84.8654V53.64H81.1974V52.772ZM92.8112 47.2V57H91.8032V48.096H89.4932V47.2H92.8112ZM97.8698 47.2V57H96.8618V48.096H94.5518V47.2H97.8698ZM100.968 51.106C100.763 51.106 100.586 51.0313 100.436 50.882C100.296 50.7327 100.226 50.5507 100.226 50.336C100.226 50.1213 100.296 49.944 100.436 49.804C100.586 49.6547 100.763 49.58 100.968 49.58C101.174 49.58 101.351 49.6547 101.5 49.804C101.65 49.944 101.724 50.1213 101.724 50.336C101.724 50.5507 101.65 50.7327 101.5 50.882C101.351 51.0313 101.174 51.106 100.968 51.106ZM100.968 57.07C100.763 57.07 100.586 56.9953 100.436 56.846C100.296 56.6967 100.226 56.5147 100.226 56.3C100.226 56.0853 100.296 55.908 100.436 55.768C100.586 55.6187 100.763 55.544 100.968 55.544C101.174 55.544 101.351 55.6187 101.5 55.768C101.65 55.908 101.724 56.0853 101.724 56.3C101.724 56.5147 101.65 56.6967 101.5 56.846C101.351 56.9953 101.174 57.07 100.968 57.07ZM105.895 47.2V57H104.887V48.096H102.577V47.2H105.895ZM110.814 51.218C112.232 51.218 113.264 51.4747 113.908 51.988C114.561 52.492 114.888 53.2013 114.888 54.116C114.888 54.6853 114.752 55.194 114.482 55.642C114.22 56.09 113.824 56.4447 113.292 56.706C112.76 56.958 112.106 57.084 111.332 57.084C110.632 57.084 109.964 56.972 109.33 56.748C108.704 56.5147 108.2 56.2067 107.818 55.824L108.308 55.026C108.634 55.362 109.064 55.6373 109.596 55.852C110.128 56.0573 110.702 56.16 111.318 56.16C112.13 56.16 112.755 55.978 113.194 55.614C113.642 55.25 113.866 54.7647 113.866 54.158C113.866 53.486 113.614 52.9773 113.11 52.632C112.615 52.2867 111.775 52.114 110.59 52.114H108.504L109.008 47.2H114.37V48.096H109.89L109.554 51.218H110.814ZM126.846 54.382H121.386L120.21 57H119.132L123.612 47.2H124.634L129.114 57H128.022L126.846 54.382ZM126.468 53.542L124.116 48.278L121.764 53.542H126.468ZM140.913 47.2V57H139.919V49.16L136.069 55.754H135.579L131.729 49.202V57H130.735V47.2H131.589L135.845 54.466L140.059 47.2H140.913Z" fill="#6B8093"/>
<path opacity="0.6" d="M1 97C1 91.4772 5.47715 87 11 87H460C465.523 87 470 91.4772 470 97V151C470 156.523 465.523 161 460 161H11C5.47715 161 1 156.523 1 151V97Z" fill="white"/>
<path d="M404.339 112.096V121H403.523V119.752C403.267 120.176 402.927 120.5 402.503 120.724C402.087 120.948 401.615 121.06 401.087 121.06C400.495 121.06 399.959 120.924 399.479 120.652C398.999 120.38 398.623 120 398.351 119.512C398.079 119.024 397.943 118.468 397.943 117.844C397.943 117.22 398.079 116.664 398.351 116.176C398.623 115.688 398.999 115.312 399.479 115.048C399.959 114.776 400.495 114.64 401.087 114.64C401.599 114.64 402.059 114.748 402.467 114.964C402.883 115.172 403.223 115.48 403.487 115.888V112.096H404.339ZM401.159 120.304C401.599 120.304 401.995 120.204 402.347 120.004C402.707 119.796 402.987 119.504 403.187 119.128C403.395 118.752 403.499 118.324 403.499 117.844C403.499 117.364 403.395 116.936 403.187 116.56C402.987 116.184 402.707 115.896 402.347 115.696C401.995 115.488 401.599 115.384 401.159 115.384C400.711 115.384 400.307 115.488 399.947 115.696C399.595 115.896 399.315 116.184 399.107 116.56C398.907 116.936 398.807 117.364 398.807 117.844C398.807 118.324 398.907 118.752 399.107 119.128C399.315 119.504 399.595 119.796 399.947 120.004C400.307 120.204 400.711 120.304 401.159 120.304ZM406.711 114.688H407.563V121H406.711V114.688ZM407.143 113.308C406.967 113.308 406.819 113.248 406.699 113.128C406.579 113.008 406.519 112.864 406.519 112.696C406.519 112.536 406.579 112.396 406.699 112.276C406.819 112.156 406.967 112.096 407.143 112.096C407.319 112.096 407.467 112.156 407.587 112.276C407.707 112.388 407.767 112.524 407.767 112.684C407.767 112.86 407.707 113.008 407.587 113.128C407.467 113.248 407.319 113.308 407.143 113.308ZM411.626 121.06C411.114 121.06 410.622 120.988 410.15 120.844C409.686 120.692 409.322 120.504 409.058 120.28L409.442 119.608C409.706 119.816 410.038 119.988 410.438 120.124C410.838 120.252 411.254 120.316 411.686 120.316C412.262 120.316 412.686 120.228 412.958 120.052C413.238 119.868 413.378 119.612 413.378 119.284C413.378 119.052 413.302 118.872 413.15 118.744C412.998 118.608 412.806 118.508 412.574 118.444C412.342 118.372 412.034 118.304 411.65 118.24C411.138 118.144 410.726 118.048 410.414 117.952C410.102 117.848 409.834 117.676 409.61 117.436C409.394 117.196 409.286 116.864 409.286 116.44C409.286 115.912 409.506 115.48 409.946 115.144C410.386 114.808 410.998 114.64 411.782 114.64C412.19 114.64 412.598 114.696 413.006 114.808C413.414 114.912 413.75 115.052 414.014 115.228L413.642 115.912C413.122 115.552 412.502 115.372 411.782 115.372C411.238 115.372 410.826 115.468 410.546 115.66C410.274 115.852 410.138 116.104 410.138 116.416C410.138 116.656 410.214 116.848 410.366 116.992C410.526 117.136 410.722 117.244 410.954 117.316C411.186 117.38 411.506 117.448 411.914 117.52C412.418 117.616 412.822 117.712 413.126 117.808C413.43 117.904 413.69 118.068 413.906 118.3C414.122 118.532 414.23 118.852 414.23 119.26C414.23 119.812 413.998 120.252 413.534 120.58C413.078 120.9 412.442 121.06 411.626 121.06ZM423.677 114.64C424.469 114.64 425.089 114.868 425.537 115.324C425.993 115.78 426.221 116.452 426.221 117.34V121H425.369V117.424C425.369 116.768 425.209 116.268 424.889 115.924C424.577 115.58 424.133 115.408 423.557 115.408C422.901 115.408 422.385 115.612 422.009 116.02C421.633 116.42 421.445 116.976 421.445 117.688V121H420.593V117.424C420.593 116.768 420.433 116.268 420.113 115.924C419.801 115.58 419.353 115.408 418.769 115.408C418.121 115.408 417.605 115.612 417.221 116.02C416.845 116.42 416.657 116.976 416.657 117.688V121H415.805V114.688H416.621V115.84C416.845 115.456 417.157 115.16 417.557 114.952C417.957 114.744 418.417 114.64 418.937 114.64C419.465 114.64 419.921 114.752 420.305 114.976C420.697 115.2 420.989 115.532 421.181 115.972C421.413 115.556 421.745 115.232 422.177 115C422.617 114.76 423.117 114.64 423.677 114.64ZM428.532 114.688H429.384V121H428.532V114.688ZM428.964 113.308C428.788 113.308 428.64 113.248 428.52 113.128C428.4 113.008 428.34 112.864 428.34 112.696C428.34 112.536 428.4 112.396 428.52 112.276C428.64 112.156 428.788 112.096 428.964 112.096C429.14 112.096 429.288 112.156 429.408 112.276C429.528 112.388 429.588 112.524 429.588 112.684C429.588 112.86 429.528 113.008 429.408 113.128C429.288 113.248 429.14 113.308 428.964 113.308ZM433.446 121.06C432.934 121.06 432.442 120.988 431.97 120.844C431.506 120.692 431.142 120.504 430.878 120.28L431.262 119.608C431.526 119.816 431.858 119.988 432.258 120.124C432.658 120.252 433.074 120.316 433.506 120.316C434.082 120.316 434.506 120.228 434.778 120.052C435.058 119.868 435.198 119.612 435.198 119.284C435.198 119.052 435.122 118.872 434.97 118.744C434.818 118.608 434.626 118.508 434.394 118.444C434.162 118.372 433.854 118.304 433.47 118.24C432.958 118.144 432.546 118.048 432.234 117.952C431.922 117.848 431.654 117.676 431.43 117.436C431.214 117.196 431.106 116.864 431.106 116.44C431.106 115.912 431.326 115.48 431.766 115.144C432.206 114.808 432.818 114.64 433.602 114.64C434.01 114.64 434.418 114.696 434.826 114.808C435.234 114.912 435.57 115.052 435.834 115.228L435.462 115.912C434.942 115.552 434.322 115.372 433.602 115.372C433.058 115.372 432.646 115.468 432.366 115.66C432.094 115.852 431.958 116.104 431.958 116.416C431.958 116.656 432.034 116.848 432.186 116.992C432.346 117.136 432.542 117.244 432.774 117.316C433.006 117.38 433.326 117.448 433.734 117.52C434.238 117.616 434.642 117.712 434.946 117.808C435.25 117.904 435.51 118.068 435.726 118.3C435.942 118.532 436.05 118.852 436.05 119.26C436.05 119.812 435.818 120.252 435.354 120.58C434.898 120.9 434.262 121.06 433.446 121.06ZM439.318 121.06C438.806 121.06 438.314 120.988 437.842 120.844C437.378 120.692 437.014 120.504 436.75 120.28L437.134 119.608C437.398 119.816 437.73 119.988 438.13 120.124C438.53 120.252 438.946 120.316 439.378 120.316C439.954 120.316 440.378 120.228 440.65 120.052C440.93 119.868 441.07 119.612 441.07 119.284C441.07 119.052 440.994 118.872 440.842 118.744C440.69 118.608 440.498 118.508 440.266 118.444C440.034 118.372 439.726 118.304 439.342 118.24C438.83 118.144 438.418 118.048 438.106 117.952C437.794 117.848 437.526 117.676 437.302 117.436C437.086 117.196 436.978 116.864 436.978 116.44C436.978 115.912 437.198 115.48 437.638 115.144C438.078 114.808 438.69 114.64 439.474 114.64C439.882 114.64 440.29 114.696 440.698 114.808C441.106 114.912 441.442 115.052 441.706 115.228L441.334 115.912C440.814 115.552 440.194 115.372 439.474 115.372C438.93 115.372 438.518 115.468 438.238 115.66C437.966 115.852 437.83 116.104 437.83 116.416C437.83 116.656 437.906 116.848 438.058 116.992C438.218 117.136 438.414 117.244 438.646 117.316C438.878 117.38 439.198 117.448 439.605 117.52C440.11 117.616 440.514 117.712 440.818 117.808C441.122 117.904 441.382 118.068 441.598 118.3C441.814 118.532 441.922 118.852 441.922 119.26C441.922 119.812 441.69 120.252 441.226 120.58C440.77 120.9 440.134 121.06 439.318 121.06ZM453.798 121L451.794 118.36L449.778 121H448.818L451.314 117.76L448.938 114.688H449.898L451.794 117.16L453.69 114.688H454.626L452.25 117.76L454.77 121H453.798Z" fill="#EF878D"/>
<path d="M27.288 121L25.048 117.85C24.796 117.878 24.5347 117.892 24.264 117.892H21.632V121H20.596V111.2H24.264C25.5147 111.2 26.4947 111.499 27.204 112.096C27.9133 112.693 28.268 113.515 28.268 114.56C28.268 115.325 28.072 115.974 27.68 116.506C27.2973 117.029 26.7467 117.407 26.028 117.64L28.422 121H27.288ZM24.236 117.01C25.2067 117.01 25.9487 116.795 26.462 116.366C26.9753 115.937 27.232 115.335 27.232 114.56C27.232 113.767 26.9753 113.16 26.462 112.74C25.9487 112.311 25.2067 112.096 24.236 112.096H21.632V117.01H24.236ZM36.9152 117.626H30.7552C30.8112 118.391 31.1052 119.012 31.6372 119.488C32.1692 119.955 32.8412 120.188 33.6532 120.188C34.1105 120.188 34.5305 120.109 34.9132 119.95C35.2959 119.782 35.6272 119.539 35.9072 119.222L36.4672 119.866C36.1405 120.258 35.7299 120.557 35.2352 120.762C34.7499 120.967 34.2132 121.07 33.6252 121.07C32.8692 121.07 32.1972 120.911 31.6092 120.594C31.0305 120.267 30.5779 119.819 30.2512 119.25C29.9245 118.681 29.7612 118.037 29.7612 117.318C29.7612 116.599 29.9152 115.955 30.2232 115.386C30.5405 114.817 30.9699 114.373 31.5112 114.056C32.0619 113.739 32.6779 113.58 33.3592 113.58C34.0405 113.58 34.6519 113.739 35.1932 114.056C35.7345 114.373 36.1592 114.817 36.4672 115.386C36.7752 115.946 36.9292 116.59 36.9292 117.318L36.9152 117.626ZM33.3592 114.434C32.6499 114.434 32.0525 114.663 31.5672 115.12C31.0912 115.568 30.8205 116.156 30.7552 116.884H35.9772C35.9119 116.156 35.6365 115.568 35.1512 115.12C34.6752 114.663 34.0779 114.434 33.3592 114.434ZM48.1364 113.58C49.0604 113.58 49.7837 113.846 50.3064 114.378C50.8384 114.91 51.1044 115.694 51.1044 116.73V121H50.1104V116.828C50.1104 116.063 49.9237 115.479 49.5504 115.078C49.1864 114.677 48.6684 114.476 47.9964 114.476C47.2311 114.476 46.6291 114.714 46.1904 115.19C45.7517 115.657 45.5324 116.305 45.5324 117.136V121H44.5384V116.828C44.5384 116.063 44.3517 115.479 43.9784 115.078C43.6144 114.677 43.0917 114.476 42.4104 114.476C41.6544 114.476 41.0524 114.714 40.6044 115.19C40.1657 115.657 39.9464 116.305 39.9464 117.136V121H38.9524V113.636H39.9044V114.98C40.1657 114.532 40.5297 114.187 40.9964 113.944C41.4631 113.701 41.9997 113.58 42.6064 113.58C43.2224 113.58 43.7544 113.711 44.2024 113.972C44.6597 114.233 45.0004 114.621 45.2244 115.134C45.4951 114.649 45.8824 114.271 46.3864 114C46.8997 113.72 47.4831 113.58 48.1364 113.58ZM53.8001 113.636H54.7941V121H53.8001V113.636ZM54.3041 112.026C54.0987 112.026 53.9261 111.956 53.7861 111.816C53.6461 111.676 53.5761 111.508 53.5761 111.312C53.5761 111.125 53.6461 110.962 53.7861 110.822C53.9261 110.682 54.0987 110.612 54.3041 110.612C54.5094 110.612 54.6821 110.682 54.8221 110.822C54.9621 110.953 55.0321 111.111 55.0321 111.298C55.0321 111.503 54.9621 111.676 54.8221 111.816C54.6821 111.956 54.5094 112.026 54.3041 112.026ZM61.3118 113.58C62.2358 113.58 62.9685 113.851 63.5098 114.392C64.0605 114.924 64.3358 115.703 64.3358 116.73V121H63.3418V116.828C63.3418 116.063 63.1505 115.479 62.7678 115.078C62.3852 114.677 61.8392 114.476 61.1298 114.476C60.3365 114.476 59.7065 114.714 59.2398 115.19C58.7825 115.657 58.5538 116.305 58.5538 117.136V121H57.5598V113.636H58.5118V114.994C58.7825 114.546 59.1558 114.201 59.6318 113.958C60.1172 113.706 60.6772 113.58 61.3118 113.58ZM73.7818 110.612V121H72.8298V119.544C72.5311 120.039 72.1344 120.417 71.6398 120.678C71.1544 120.939 70.6038 121.07 69.9878 121.07C69.2971 121.07 68.6718 120.911 68.1118 120.594C67.5518 120.277 67.1131 119.833 66.7958 119.264C66.4784 118.695 66.3198 118.046 66.3198 117.318C66.3198 116.59 66.4784 115.941 66.7958 115.372C67.1131 114.803 67.5518 114.364 68.1118 114.056C68.6718 113.739 69.2971 113.58 69.9878 113.58C70.5851 113.58 71.1218 113.706 71.5978 113.958C72.0831 114.201 72.4798 114.56 72.7878 115.036V110.612H73.7818ZM70.0718 120.188C70.5851 120.188 71.0471 120.071 71.4578 119.838C71.8778 119.595 72.2044 119.255 72.4378 118.816C72.6804 118.377 72.8018 117.878 72.8018 117.318C72.8018 116.758 72.6804 116.259 72.4378 115.82C72.2044 115.381 71.8778 115.045 71.4578 114.812C71.0471 114.569 70.5851 114.448 70.0718 114.448C69.5491 114.448 69.0778 114.569 68.6578 114.812C68.2471 115.045 67.9204 115.381 67.6778 115.82C67.4444 116.259 67.3278 116.758 67.3278 117.318C67.3278 117.878 67.4444 118.377 67.6778 118.816C67.9204 119.255 68.2471 119.595 68.6578 119.838C69.0778 120.071 69.5491 120.188 70.0718 120.188ZM82.9621 117.626H76.8021C76.8581 118.391 77.1521 119.012 77.6841 119.488C78.2161 119.955 78.8881 120.188 79.7001 120.188C80.1574 120.188 80.5774 120.109 80.9601 119.95C81.3427 119.782 81.6741 119.539 81.9541 119.222L82.5141 119.866C82.1874 120.258 81.7767 120.557 81.2821 120.762C80.7967 120.967 80.2601 121.07 79.6721 121.07C78.9161 121.07 78.2441 120.911 77.6561 120.594C77.0774 120.267 76.6247 119.819 76.2981 119.25C75.9714 118.681 75.8081 118.037 75.8081 117.318C75.8081 116.599 75.9621 115.955 76.2701 115.386C76.5874 114.817 77.0167 114.373 77.5581 114.056C78.1087 113.739 78.7247 113.58 79.4061 113.58C80.0874 113.58 80.6987 113.739 81.2401 114.056C81.7814 114.373 82.2061 114.817 82.5141 115.386C82.8221 115.946 82.9761 116.59 82.9761 117.318L82.9621 117.626ZM79.4061 114.434C78.6967 114.434 78.0994 114.663 77.6141 115.12C77.1381 115.568 76.8674 116.156 76.8021 116.884H82.0241C81.9587 116.156 81.6834 115.568 81.1981 115.12C80.7221 114.663 80.1247 114.434 79.4061 114.434ZM85.9513 115.078C86.1846 114.583 86.5299 114.21 86.9873 113.958C87.4539 113.706 88.0279 113.58 88.7093 113.58V114.546L88.4713 114.532C87.6966 114.532 87.0899 114.77 86.6513 115.246C86.2126 115.722 85.9933 116.389 85.9933 117.248V121H84.9993V113.636H85.9513V115.078Z" fill="#314760"/>
<path opacity="0.5" d="M22.444 134.2V144H21.436V135.096H19.126V134.2H22.444ZM31.4786 143.104V144H24.6046V143.286L28.6786 139.296C29.1919 138.792 29.5373 138.358 29.7146 137.994C29.9013 137.621 29.9946 137.247 29.9946 136.874C29.9946 136.295 29.7939 135.847 29.3926 135.53C29.0006 135.203 28.4359 135.04 27.6986 135.04C26.5506 135.04 25.6593 135.404 25.0246 136.132L24.3106 135.516C24.6933 135.068 25.1786 134.723 25.7666 134.48C26.3639 134.237 27.0359 134.116 27.7826 134.116C28.7813 134.116 29.5699 134.354 30.1486 134.83C30.7366 135.297 31.0306 135.941 31.0306 136.762C31.0306 137.266 30.9186 137.751 30.6946 138.218C30.4706 138.685 30.0459 139.221 29.4206 139.828L26.0886 143.104H31.4786ZM33.4996 138.106C33.2943 138.106 33.117 138.031 32.9676 137.882C32.8276 137.733 32.7576 137.551 32.7576 137.336C32.7576 137.121 32.8276 136.944 32.9676 136.804C33.117 136.655 33.2943 136.58 33.4996 136.58C33.705 136.58 33.8823 136.655 34.0316 136.804C34.181 136.944 34.2556 137.121 34.2556 137.336C34.2556 137.551 34.181 137.733 34.0316 137.882C33.8823 138.031 33.705 138.106 33.4996 138.106ZM33.4996 144.07C33.2943 144.07 33.117 143.995 32.9676 143.846C32.8276 143.697 32.7576 143.515 32.7576 143.3C32.7576 143.085 32.8276 142.908 32.9676 142.768C33.117 142.619 33.2943 142.544 33.4996 142.544C33.705 142.544 33.8823 142.619 34.0316 142.768C34.181 142.908 34.2556 143.085 34.2556 143.3C34.2556 143.515 34.181 143.697 34.0316 143.846C33.8823 143.995 33.705 144.07 33.4996 144.07ZM39.6164 144.084C38.8604 144.084 38.1838 143.883 37.5864 143.482C36.9984 143.081 36.5364 142.507 36.2004 141.76C35.8738 141.004 35.7104 140.117 35.7104 139.1C35.7104 138.083 35.8738 137.201 36.2004 136.454C36.5364 135.698 36.9984 135.119 37.5864 134.718C38.1838 134.317 38.8604 134.116 39.6164 134.116C40.3724 134.116 41.0444 134.317 41.6324 134.718C42.2298 135.119 42.6964 135.698 43.0324 136.454C43.3684 137.201 43.5364 138.083 43.5364 139.1C43.5364 140.117 43.3684 141.004 43.0324 141.76C42.6964 142.507 42.2298 143.081 41.6324 143.482C41.0444 143.883 40.3724 144.084 39.6164 144.084ZM39.6164 143.16C40.1858 143.16 40.6851 143.001 41.1144 142.684C41.5531 142.367 41.8938 141.905 42.1364 141.298C42.3791 140.691 42.5004 139.959 42.5004 139.1C42.5004 138.241 42.3791 137.509 42.1364 136.902C41.8938 136.295 41.5531 135.833 41.1144 135.516C40.6851 135.199 40.1858 135.04 39.6164 135.04C39.0471 135.04 38.5431 135.199 38.1044 135.516C37.6751 135.833 37.3391 136.295 37.0964 136.902C36.8538 137.509 36.7324 138.241 36.7324 139.1C36.7324 139.959 36.8538 140.691 37.0964 141.298C37.3391 141.905 37.6751 142.367 38.1044 142.684C38.5431 143.001 39.0471 143.16 39.6164 143.16ZM48.886 144.084C48.13 144.084 47.4533 143.883 46.856 143.482C46.268 143.081 45.806 142.507 45.47 141.76C45.1433 141.004 44.98 140.117 44.98 139.1C44.98 138.083 45.1433 137.201 45.47 136.454C45.806 135.698 46.268 135.119 46.856 134.718C47.4533 134.317 48.13 134.116 48.886 134.116C49.642 134.116 50.314 134.317 50.902 134.718C51.4993 135.119 51.966 135.698 52.302 136.454C52.638 137.201 52.806 138.083 52.806 139.1C52.806 140.117 52.638 141.004 52.302 141.76C51.966 142.507 51.4993 143.081 50.902 143.482C50.314 143.883 49.642 144.084 48.886 144.084ZM48.886 143.16C49.4553 143.16 49.9546 143.001 50.384 142.684C50.8226 142.367 51.1633 141.905 51.406 141.298C51.6486 140.691 51.77 139.959 51.77 139.1C51.77 138.241 51.6486 137.509 51.406 136.902C51.1633 136.295 50.8226 135.833 50.384 135.516C49.9546 135.199 49.4553 135.04 48.886 135.04C48.3166 135.04 47.8126 135.199 47.374 135.516C46.9446 135.833 46.6086 136.295 46.366 136.902C46.1233 137.509 46.002 138.241 46.002 139.1C46.002 139.959 46.1233 140.691 46.366 141.298C46.6086 141.905 46.9446 142.367 47.374 142.684C47.8126 143.001 48.3166 143.16 48.886 143.16ZM62.4495 134.2C63.7002 134.2 64.6802 134.499 65.3895 135.096C66.0989 135.693 66.4535 136.515 66.4535 137.56C66.4535 138.605 66.0989 139.427 65.3895 140.024C64.6802 140.612 63.7002 140.906 62.4495 140.906H59.8175V144H58.7815V134.2H62.4495ZM62.4215 139.996C63.3922 139.996 64.1342 139.786 64.6475 139.366C65.1609 138.937 65.4175 138.335 65.4175 137.56C65.4175 136.767 65.1609 136.16 64.6475 135.74C64.1342 135.311 63.3922 135.096 62.4215 135.096H59.8175V139.996H62.4215ZM78.8717 134.2V144H77.8777V136.16L74.0277 142.754H73.5377L69.6877 136.202V144H68.6937V134.2H69.5477L73.8037 141.466L78.0177 134.2H78.8717ZM84.9728 139.772H88.6408V140.64H84.9728V139.772ZM96.5866 134.2V144H95.5786V135.096H93.2686V134.2H96.5866ZM105.621 143.104V144H98.7472V143.286L102.821 139.296C103.335 138.792 103.68 138.358 103.857 137.994C104.044 137.621 104.137 137.247 104.137 136.874C104.137 136.295 103.937 135.847 103.535 135.53C103.143 135.203 102.579 135.04 101.841 135.04C100.693 135.04 99.8018 135.404 99.1672 136.132L98.4532 135.516C98.8358 135.068 99.3212 134.723 99.9092 134.48C100.507 134.237 101.179 134.116 101.925 134.116C102.924 134.116 103.713 134.354 104.291 134.83C104.879 135.297 105.173 135.941 105.173 136.762C105.173 137.266 105.061 137.751 104.837 138.218C104.613 138.685 104.189 139.221 103.563 139.828L100.231 143.104H105.621ZM107.642 138.106C107.437 138.106 107.26 138.031 107.11 137.882C106.97 137.733 106.9 137.551 106.9 137.336C106.9 137.121 106.97 136.944 107.11 136.804C107.26 136.655 107.437 136.58 107.642 136.58C107.848 136.58 108.025 136.655 108.174 136.804C108.324 136.944 108.398 137.121 108.398 137.336C108.398 137.551 108.324 137.733 108.174 137.882C108.025 138.031 107.848 138.106 107.642 138.106ZM107.642 144.07C107.437 144.07 107.26 143.995 107.11 143.846C106.97 143.697 106.9 143.515 106.9 143.3C106.9 143.085 106.97 142.908 107.11 142.768C107.26 142.619 107.437 142.544 107.642 142.544C107.848 142.544 108.025 142.619 108.174 142.768C108.324 142.908 108.398 143.085 108.398 143.3C108.398 143.515 108.324 143.697 108.174 143.846C108.025 143.995 107.848 144.07 107.642 144.07ZM113.185 138.4C114.212 138.456 114.991 138.736 115.523 139.24C116.064 139.735 116.335 140.383 116.335 141.186C116.335 141.746 116.2 142.245 115.929 142.684C115.658 143.113 115.257 143.454 114.725 143.706C114.193 143.958 113.544 144.084 112.779 144.084C112.07 144.084 111.398 143.972 110.763 143.748C110.138 143.515 109.634 143.207 109.251 142.824L109.741 142.026C110.068 142.362 110.502 142.637 111.043 142.852C111.584 143.057 112.163 143.16 112.779 143.16C113.582 143.16 114.202 142.987 114.641 142.642C115.08 142.287 115.299 141.802 115.299 141.186C115.299 140.579 115.08 140.103 114.641 139.758C114.202 139.413 113.54 139.24 112.653 139.24H111.953V138.498L114.669 135.096H109.657V134.2H115.957V134.914L113.185 138.4ZM121.661 144.084C120.905 144.084 120.229 143.883 119.631 143.482C119.043 143.081 118.581 142.507 118.245 141.76C117.919 141.004 117.755 140.117 117.755 139.1C117.755 138.083 117.919 137.201 118.245 136.454C118.581 135.698 119.043 135.119 119.631 134.718C120.229 134.317 120.905 134.116 121.661 134.116C122.417 134.116 123.089 134.317 123.677 134.718C124.275 135.119 124.741 135.698 125.077 136.454C125.413 137.201 125.581 138.083 125.581 139.1C125.581 140.117 125.413 141.004 125.077 141.76C124.741 142.507 124.275 143.081 123.677 143.482C123.089 143.883 122.417 144.084 121.661 144.084ZM121.661 143.16C122.231 143.16 122.73 143.001 123.159 142.684C123.598 142.367 123.939 141.905 124.181 141.298C124.424 140.691 124.545 139.959 124.545 139.1C124.545 138.241 124.424 137.509 124.181 136.902C123.939 136.295 123.598 135.833 123.159 135.516C122.73 135.199 122.231 135.04 121.661 135.04C121.092 135.04 120.588 135.199 120.149 135.516C119.72 135.833 119.384 136.295 119.141 136.902C118.899 137.509 118.777 138.241 118.777 139.1C118.777 139.959 118.899 140.691 119.141 141.298C119.384 141.905 119.72 142.367 120.149 142.684C120.588 143.001 121.092 143.16 121.661 143.16ZM135.225 134.2C136.476 134.2 137.456 134.499 138.165 135.096C138.874 135.693 139.229 136.515 139.229 137.56C139.229 138.605 138.874 139.427 138.165 140.024C137.456 140.612 136.476 140.906 135.225 140.906H132.593V144H131.557V134.2H135.225ZM135.197 139.996C136.168 139.996 136.91 139.786 137.423 139.366C137.936 138.937 138.193 138.335 138.193 137.56C138.193 136.767 137.936 136.16 137.423 135.74C136.91 135.311 136.168 135.096 135.197 135.096H132.593V139.996H135.197ZM151.647 134.2V144H150.653V136.16L146.803 142.754H146.313L142.463 136.202V144H141.469V134.2H142.323L146.579 141.466L150.793 134.2H151.647Z" fill="#6B8093"/>
<path opacity="0.6" d="M1 184C1 178.477 5.47715 174 11 174H460C465.523 174 470 178.477 470 184V238C470 243.523 465.523 248 460 248H11C5.47715 248 1 243.523 1 238V184Z" fill="white"/>
<path d="M404.339 195.096V204H403.523V202.752C403.267 203.176 402.927 203.5 402.503 203.724C402.087 203.948 401.615 204.06 401.087 204.06C400.495 204.06 399.959 203.924 399.479 203.652C398.999 203.38 398.623 203 398.351 202.512C398.079 202.024 397.943 201.468 397.943 200.844C397.943 200.22 398.079 199.664 398.351 199.176C398.623 198.688 398.999 198.312 399.479 198.048C399.959 197.776 400.495 197.64 401.087 197.64C401.599 197.64 402.059 197.748 402.467 197.964C402.883 198.172 403.223 198.48 403.487 198.888V195.096H404.339ZM401.159 203.304C401.599 203.304 401.995 203.204 402.347 203.004C402.707 202.796 402.987 202.504 403.187 202.128C403.395 201.752 403.499 201.324 403.499 200.844C403.499 200.364 403.395 199.936 403.187 199.56C402.987 199.184 402.707 198.896 402.347 198.696C401.995 198.488 401.599 198.384 401.159 198.384C400.711 198.384 400.307 198.488 399.947 198.696C399.595 198.896 399.315 199.184 399.107 199.56C398.907 199.936 398.807 200.364 398.807 200.844C398.807 201.324 398.907 201.752 399.107 202.128C399.315 202.504 399.595 202.796 399.947 203.004C400.307 203.204 400.711 203.304 401.159 203.304ZM406.711 197.688H407.563V204H406.711V197.688ZM407.143 196.308C406.967 196.308 406.819 196.248 406.699 196.128C406.579 196.008 406.519 195.864 406.519 195.696C406.519 195.536 406.579 195.396 406.699 195.276C406.819 195.156 406.967 195.096 407.143 195.096C407.319 195.096 407.467 195.156 407.587 195.276C407.707 195.388 407.767 195.524 407.767 195.684C407.767 195.86 407.707 196.008 407.587 196.128C407.467 196.248 407.319 196.308 407.143 196.308ZM411.626 204.06C411.114 204.06 410.622 203.988 410.15 203.844C409.686 203.692 409.322 203.504 409.058 203.28L409.442 202.608C409.706 202.816 410.038 202.988 410.438 203.124C410.838 203.252 411.254 203.316 411.686 203.316C412.262 203.316 412.686 203.228 412.958 203.052C413.238 202.868 413.378 202.612 413.378 202.284C413.378 202.052 413.302 201.872 413.15 201.744C412.998 201.608 412.806 201.508 412.574 201.444C412.342 201.372 412.034 201.304 411.65 201.24C411.138 201.144 410.726 201.048 410.414 200.952C410.102 200.848 409.834 200.676 409.61 200.436C409.394 200.196 409.286 199.864 409.286 199.44C409.286 198.912 409.506 198.48 409.946 198.144C410.386 197.808 410.998 197.64 411.782 197.64C412.19 197.64 412.598 197.696 413.006 197.808C413.414 197.912 413.75 198.052 414.014 198.228L413.642 198.912C413.122 198.552 412.502 198.372 411.782 198.372C411.238 198.372 410.826 198.468 410.546 198.66C410.274 198.852 410.138 199.104 410.138 199.416C410.138 199.656 410.214 199.848 410.366 199.992C410.526 200.136 410.722 200.244 410.954 200.316C411.186 200.38 411.506 200.448 411.914 200.52C412.418 200.616 412.822 200.712 413.126 200.808C413.43 200.904 413.69 201.068 413.906 201.3C414.122 201.532 414.23 201.852 414.23 202.26C414.23 202.812 413.998 203.252 413.534 203.58C413.078 203.9 412.442 204.06 411.626 204.06ZM423.677 197.64C424.469 197.64 425.089 197.868 425.537 198.324C425.993 198.78 426.221 199.452 426.221 200.34V204H425.369V200.424C425.369 199.768 425.209 199.268 424.889 198.924C424.577 198.58 424.133 198.408 423.557 198.408C422.901 198.408 422.385 198.612 422.009 199.02C421.633 199.42 421.445 199.976 421.445 200.688V204H420.593V200.424C420.593 199.768 420.433 199.268 420.113 198.924C419.801 198.58 419.353 198.408 418.769 198.408C418.121 198.408 417.605 198.612 417.221 199.02C416.845 199.42 416.657 199.976 416.657 200.688V204H415.805V197.688H416.621V198.84C416.845 198.456 417.157 198.16 417.557 197.952C417.957 197.744 418.417 197.64 418.937 197.64C419.465 197.64 419.921 197.752 420.305 197.976C420.697 198.2 420.989 198.532 421.181 198.972C421.413 198.556 421.745 198.232 422.177 198C422.617 197.76 423.117 197.64 423.677 197.64ZM428.532 197.688H429.384V204H428.532V197.688ZM428.964 196.308C428.788 196.308 428.64 196.248 428.52 196.128C428.4 196.008 428.34 195.864 428.34 195.696C428.34 195.536 428.4 195.396 428.52 195.276C428.64 195.156 428.788 195.096 428.964 195.096C429.14 195.096 429.288 195.156 429.408 195.276C429.528 195.388 429.588 195.524 429.588 195.684C429.588 195.86 429.528 196.008 429.408 196.128C429.288 196.248 429.14 196.308 428.964 196.308ZM433.446 204.06C432.934 204.06 432.442 203.988 431.97 203.844C431.506 203.692 431.142 203.504 430.878 203.28L431.262 202.608C431.526 202.816 431.858 202.988 432.258 203.124C432.658 203.252 433.074 203.316 433.506 203.316C434.082 203.316 434.506 203.228 434.778 203.052C435.058 202.868 435.198 202.612 435.198 202.284C435.198 202.052 435.122 201.872 434.97 201.744C434.818 201.608 434.626 201.508 434.394 201.444C434.162 201.372 433.854 201.304 433.47 201.24C432.958 201.144 432.546 201.048 432.234 200.952C431.922 200.848 431.654 200.676 431.43 200.436C431.214 200.196 431.106 199.864 431.106 199.44C431.106 198.912 431.326 198.48 431.766 198.144C432.206 197.808 432.818 197.64 433.602 197.64C434.01 197.64 434.418 197.696 434.826 197.808C435.234 197.912 435.57 198.052 435.834 198.228L435.462 198.912C434.942 198.552 434.322 198.372 433.602 198.372C433.058 198.372 432.646 198.468 432.366 198.66C432.094 198.852 431.958 199.104 431.958 199.416C431.958 199.656 432.034 199.848 432.186 199.992C432.346 200.136 432.542 200.244 432.774 200.316C433.006 200.38 433.326 200.448 433.734 200.52C434.238 200.616 434.642 200.712 434.946 200.808C435.25 200.904 435.51 201.068 435.726 201.3C435.942 201.532 436.05 201.852 436.05 202.26C436.05 202.812 435.818 203.252 435.354 203.58C434.898 203.9 434.262 204.06 433.446 204.06ZM439.318 204.06C438.806 204.06 438.314 203.988 437.842 203.844C437.378 203.692 437.014 203.504 436.75 203.28L437.134 202.608C437.398 202.816 437.73 202.988 438.13 203.124C438.53 203.252 438.946 203.316 439.378 203.316C439.954 203.316 440.378 203.228 440.65 203.052C440.93 202.868 441.07 202.612 441.07 202.284C441.07 202.052 440.994 201.872 440.842 201.744C440.69 201.608 440.498 201.508 440.266 201.444C440.034 201.372 439.726 201.304 439.342 201.24C438.83 201.144 438.418 201.048 438.106 200.952C437.794 200.848 437.526 200.676 437.302 200.436C437.086 200.196 436.978 199.864 436.978 199.44C436.978 198.912 437.198 198.48 437.638 198.144C438.078 197.808 438.69 197.64 439.474 197.64C439.882 197.64 440.29 197.696 440.698 197.808C441.106 197.912 441.442 198.052 441.706 198.228L441.334 198.912C440.814 198.552 440.194 198.372 439.474 198.372C438.93 198.372 438.518 198.468 438.238 198.66C437.966 198.852 437.83 199.104 437.83 199.416C437.83 199.656 437.906 199.848 438.058 199.992C438.218 200.136 438.414 200.244 438.646 200.316C438.878 200.38 439.198 200.448 439.605 200.52C440.11 200.616 440.514 200.712 440.818 200.808C441.122 200.904 441.382 201.068 441.598 201.3C441.814 201.532 441.922 201.852 441.922 202.26C441.922 202.812 441.69 203.252 441.226 203.58C440.77 203.9 440.134 204.06 439.318 204.06ZM453.798 204L451.794 201.36L449.778 204H448.818L451.314 200.76L448.938 197.688H449.898L451.794 200.16L453.69 197.688H454.626L452.25 200.76L454.77 204H453.798Z" fill="#EF878D"/>
<path d="M27.288 208L25.048 204.85C24.796 204.878 24.5347 204.892 24.264 204.892H21.632V208H20.596V198.2H24.264C25.5147 198.2 26.4947 198.499 27.204 199.096C27.9133 199.693 28.268 200.515 28.268 201.56C28.268 202.325 28.072 202.974 27.68 203.506C27.2973 204.029 26.7467 204.407 26.028 204.64L28.422 208H27.288ZM24.236 204.01C25.2067 204.01 25.9487 203.795 26.462 203.366C26.9753 202.937 27.232 202.335 27.232 201.56C27.232 200.767 26.9753 200.16 26.462 199.74C25.9487 199.311 25.2067 199.096 24.236 199.096H21.632V204.01H24.236ZM36.9152 204.626H30.7552C30.8112 205.391 31.1052 206.012 31.6372 206.488C32.1692 206.955 32.8412 207.188 33.6532 207.188C34.1105 207.188 34.5305 207.109 34.9132 206.95C35.2959 206.782 35.6272 206.539 35.9072 206.222L36.4672 206.866C36.1405 207.258 35.7299 207.557 35.2352 207.762C34.7499 207.967 34.2132 208.07 33.6252 208.07C32.8692 208.07 32.1972 207.911 31.6092 207.594C31.0305 207.267 30.5779 206.819 30.2512 206.25C29.9245 205.681 29.7612 205.037 29.7612 204.318C29.7612 203.599 29.9152 202.955 30.2232 202.386C30.5405 201.817 30.9699 201.373 31.5112 201.056C32.0619 200.739 32.6779 200.58 33.3592 200.58C34.0405 200.58 34.6519 200.739 35.1932 201.056C35.7345 201.373 36.1592 201.817 36.4672 202.386C36.7752 202.946 36.9292 203.59 36.9292 204.318L36.9152 204.626ZM33.3592 201.434C32.6499 201.434 32.0525 201.663 31.5672 202.12C31.0912 202.568 30.8205 203.156 30.7552 203.884H35.9772C35.9119 203.156 35.6365 202.568 35.1512 202.12C34.6752 201.663 34.0779 201.434 33.3592 201.434ZM48.1364 200.58C49.0604 200.58 49.7837 200.846 50.3064 201.378C50.8384 201.91 51.1044 202.694 51.1044 203.73V208H50.1104V203.828C50.1104 203.063 49.9237 202.479 49.5504 202.078C49.1864 201.677 48.6684 201.476 47.9964 201.476C47.2311 201.476 46.6291 201.714 46.1904 202.19C45.7517 202.657 45.5324 203.305 45.5324 204.136V208H44.5384V203.828C44.5384 203.063 44.3517 202.479 43.9784 202.078C43.6144 201.677 43.0917 201.476 42.4104 201.476C41.6544 201.476 41.0524 201.714 40.6044 202.19C40.1657 202.657 39.9464 203.305 39.9464 204.136V208H38.9524V200.636H39.9044V201.98C40.1657 201.532 40.5297 201.187 40.9964 200.944C41.4631 200.701 41.9997 200.58 42.6064 200.58C43.2224 200.58 43.7544 200.711 44.2024 200.972C44.6597 201.233 45.0004 201.621 45.2244 202.134C45.4951 201.649 45.8824 201.271 46.3864 201C46.8997 200.72 47.4831 200.58 48.1364 200.58ZM53.8001 200.636H54.7941V208H53.8001V200.636ZM54.3041 199.026C54.0987 199.026 53.9261 198.956 53.7861 198.816C53.6461 198.676 53.5761 198.508 53.5761 198.312C53.5761 198.125 53.6461 197.962 53.7861 197.822C53.9261 197.682 54.0987 197.612 54.3041 197.612C54.5094 197.612 54.6821 197.682 54.8221 197.822C54.9621 197.953 55.0321 198.111 55.0321 198.298C55.0321 198.503 54.9621 198.676 54.8221 198.816C54.6821 198.956 54.5094 199.026 54.3041 199.026ZM61.3118 200.58C62.2358 200.58 62.9685 200.851 63.5098 201.392C64.0605 201.924 64.3358 202.703 64.3358 203.73V208H63.3418V203.828C63.3418 203.063 63.1505 202.479 62.7678 202.078C62.3852 201.677 61.8392 201.476 61.1298 201.476C60.3365 201.476 59.7065 201.714 59.2398 202.19C58.7825 202.657 58.5538 203.305 58.5538 204.136V208H57.5598V200.636H58.5118V201.994C58.7825 201.546 59.1558 201.201 59.6318 200.958C60.1172 200.706 60.6772 200.58 61.3118 200.58ZM73.7818 197.612V208H72.8298V206.544C72.5311 207.039 72.1344 207.417 71.6398 207.678C71.1544 207.939 70.6038 208.07 69.9878 208.07C69.2971 208.07 68.6718 207.911 68.1118 207.594C67.5518 207.277 67.1131 206.833 66.7958 206.264C66.4784 205.695 66.3198 205.046 66.3198 204.318C66.3198 203.59 66.4784 202.941 66.7958 202.372C67.1131 201.803 67.5518 201.364 68.1118 201.056C68.6718 200.739 69.2971 200.58 69.9878 200.58C70.5851 200.58 71.1218 200.706 71.5978 200.958C72.0831 201.201 72.4798 201.56 72.7878 202.036V197.612H73.7818ZM70.0718 207.188C70.5851 207.188 71.0471 207.071 71.4578 206.838C71.8778 206.595 72.2044 206.255 72.4378 205.816C72.6804 205.377 72.8018 204.878 72.8018 204.318C72.8018 203.758 72.6804 203.259 72.4378 202.82C72.2044 202.381 71.8778 202.045 71.4578 201.812C71.0471 201.569 70.5851 201.448 70.0718 201.448C69.5491 201.448 69.0778 201.569 68.6578 201.812C68.2471 202.045 67.9204 202.381 67.6778 202.82C67.4444 203.259 67.3278 203.758 67.3278 204.318C67.3278 204.878 67.4444 205.377 67.6778 205.816C67.9204 206.255 68.2471 206.595 68.6578 206.838C69.0778 207.071 69.5491 207.188 70.0718 207.188ZM82.9621 204.626H76.8021C76.8581 205.391 77.1521 206.012 77.6841 206.488C78.2161 206.955 78.8881 207.188 79.7001 207.188C80.1574 207.188 80.5774 207.109 80.9601 206.95C81.3427 206.782 81.6741 206.539 81.9541 206.222L82.5141 206.866C82.1874 207.258 81.7767 207.557 81.2821 207.762C80.7967 207.967 80.2601 208.07 79.6721 208.07C78.9161 208.07 78.2441 207.911 77.6561 207.594C77.0774 207.267 76.6247 206.819 76.2981 206.25C75.9714 205.681 75.8081 205.037 75.8081 204.318C75.8081 203.599 75.9621 202.955 76.2701 202.386C76.5874 201.817 77.0167 201.373 77.5581 201.056C78.1087 200.739 78.7247 200.58 79.4061 200.58C80.0874 200.58 80.6987 200.739 81.2401 201.056C81.7814 201.373 82.2061 201.817 82.5141 202.386C82.8221 202.946 82.9761 203.59 82.9761 204.318L82.9621 204.626ZM79.4061 201.434C78.6967 201.434 78.0994 201.663 77.6141 202.12C77.1381 202.568 76.8674 203.156 76.8021 203.884H82.0241C81.9587 203.156 81.6834 202.568 81.1981 202.12C80.7221 201.663 80.1247 201.434 79.4061 201.434ZM85.9513 202.078C86.1846 201.583 86.5299 201.21 86.9873 200.958C87.4539 200.706 88.0279 200.58 88.7093 200.58V201.546L88.4713 201.532C87.6966 201.532 87.0899 201.77 86.6513 202.246C86.2126 202.722 85.9933 203.389 85.9933 204.248V208H84.9993V200.636H85.9513V202.078Z" fill="#314760"/>
<path opacity="0.5" d="M22.444 221.2V231H21.436V222.096H19.126V221.2H22.444ZM25.5426 225.106C25.3373 225.106 25.1599 225.031 25.0106 224.882C24.8706 224.733 24.8006 224.551 24.8006 224.336C24.8006 224.121 24.8706 223.944 25.0106 223.804C25.1599 223.655 25.3373 223.58 25.5426 223.58C25.7479 223.58 25.9253 223.655 26.0746 223.804C26.2239 223.944 26.2986 224.121 26.2986 224.336C26.2986 224.551 26.2239 224.733 26.0746 224.882C25.9253 225.031 25.7479 225.106 25.5426 225.106ZM25.5426 231.07C25.3373 231.07 25.1599 230.995 25.0106 230.846C24.8706 230.697 24.8006 230.515 24.8006 230.3C24.8006 230.085 24.8706 229.908 25.0106 229.768C25.1599 229.619 25.3373 229.544 25.5426 229.544C25.7479 229.544 25.9253 229.619 26.0746 229.768C26.2239 229.908 26.2986 230.085 26.2986 230.3C26.2986 230.515 26.2239 230.697 26.0746 230.846C25.9253 230.995 25.7479 231.07 25.5426 231.07ZM31.6594 231.084C30.9034 231.084 30.2267 230.883 29.6294 230.482C29.0414 230.081 28.5794 229.507 28.2434 228.76C27.9167 228.004 27.7534 227.117 27.7534 226.1C27.7534 225.083 27.9167 224.201 28.2434 223.454C28.5794 222.698 29.0414 222.119 29.6294 221.718C30.2267 221.317 30.9034 221.116 31.6594 221.116C32.4154 221.116 33.0874 221.317 33.6754 221.718C34.2727 222.119 34.7394 222.698 35.0754 223.454C35.4114 224.201 35.5794 225.083 35.5794 226.1C35.5794 227.117 35.4114 228.004 35.0754 228.76C34.7394 229.507 34.2727 230.081 33.6754 230.482C33.0874 230.883 32.4154 231.084 31.6594 231.084ZM31.6594 230.16C32.2287 230.16 32.7281 230.001 33.1574 229.684C33.5961 229.367 33.9367 228.905 34.1794 228.298C34.4221 227.691 34.5434 226.959 34.5434 226.1C34.5434 225.241 34.4221 224.509 34.1794 223.902C33.9367 223.295 33.5961 222.833 33.1574 222.516C32.7281 222.199 32.2287 222.04 31.6594 222.04C31.0901 222.04 30.5861 222.199 30.1474 222.516C29.7181 222.833 29.3821 223.295 29.1394 223.902C28.8967 224.509 28.7754 225.241 28.7754 226.1C28.7754 226.959 28.8967 227.691 29.1394 228.298C29.3821 228.905 29.7181 229.367 30.1474 229.684C30.5861 230.001 31.0901 230.16 31.6594 230.16ZM40.9289 231.084C40.1729 231.084 39.4963 230.883 38.8989 230.482C38.3109 230.081 37.8489 229.507 37.5129 228.76C37.1863 228.004 37.0229 227.117 37.0229 226.1C37.0229 225.083 37.1863 224.201 37.5129 223.454C37.8489 222.698 38.3109 222.119 38.8989 221.718C39.4963 221.317 40.1729 221.116 40.9289 221.116C41.6849 221.116 42.3569 221.317 42.9449 221.718C43.5423 222.119 44.0089 222.698 44.3449 223.454C44.6809 224.201 44.8489 225.083 44.8489 226.1C44.8489 227.117 44.6809 228.004 44.3449 228.76C44.0089 229.507 43.5423 230.081 42.9449 230.482C42.3569 230.883 41.6849 231.084 40.9289 231.084ZM40.9289 230.16C41.4983 230.16 41.9976 230.001 42.4269 229.684C42.8656 229.367 43.2063 228.905 43.4489 228.298C43.6916 227.691 43.8129 226.959 43.8129 226.1C43.8129 225.241 43.6916 224.509 43.4489 223.902C43.2063 223.295 42.8656 222.833 42.4269 222.516C41.9976 222.199 41.4983 222.04 40.9289 222.04C40.3596 222.04 39.8556 222.199 39.4169 222.516C38.9876 222.833 38.6516 223.295 38.4089 223.902C38.1663 224.509 38.0449 225.241 38.0449 226.1C38.0449 226.959 38.1663 227.691 38.4089 228.298C38.6516 228.905 38.9876 229.367 39.4169 229.684C39.8556 230.001 40.3596 230.16 40.9289 230.16ZM54.4925 221.2C55.7432 221.2 56.7232 221.499 57.4325 222.096C58.1418 222.693 58.4965 223.515 58.4965 224.56C58.4965 225.605 58.1418 226.427 57.4325 227.024C56.7232 227.612 55.7432 227.906 54.4925 227.906H51.8605V231H50.8245V221.2H54.4925ZM54.4645 226.996C55.4352 226.996 56.1772 226.786 56.6905 226.366C57.2038 225.937 57.4605 225.335 57.4605 224.56C57.4605 223.767 57.2038 223.16 56.6905 222.74C56.1772 222.311 55.4352 222.096 54.4645 222.096H51.8605V226.996H54.4645ZM70.9146 221.2V231H69.9206V223.16L66.0706 229.754H65.5806L61.7306 223.202V231H60.7366V221.2H61.5906L65.8466 228.466L70.0606 221.2H70.9146ZM77.0158 226.772H80.6838V227.64H77.0158V226.772ZM88.6295 221.2V231H87.6215V222.096H85.3115V221.2H88.6295ZM91.7281 225.106C91.5228 225.106 91.3455 225.031 91.1961 224.882C91.0561 224.733 90.9861 224.551 90.9861 224.336C90.9861 224.121 91.0561 223.944 91.1961 223.804C91.3455 223.655 91.5228 223.58 91.7281 223.58C91.9335 223.58 92.1108 223.655 92.2601 223.804C92.4095 223.944 92.4841 224.121 92.4841 224.336C92.4841 224.551 92.4095 224.733 92.2601 224.882C92.1108 225.031 91.9335 225.106 91.7281 225.106ZM91.7281 231.07C91.5228 231.07 91.3455 230.995 91.1961 230.846C91.0561 230.697 90.9861 230.515 90.9861 230.3C90.9861 230.085 91.0561 229.908 91.1961 229.768C91.3455 229.619 91.5228 229.544 91.7281 229.544C91.9335 229.544 92.1108 229.619 92.2601 229.768C92.4095 229.908 92.4841 230.085 92.4841 230.3C92.4841 230.515 92.4095 230.697 92.2601 230.846C92.1108 230.995 91.9335 231.07 91.7281 231.07ZM97.2709 225.4C98.2976 225.456 99.0769 225.736 99.6089 226.24C100.15 226.735 100.421 227.383 100.421 228.186C100.421 228.746 100.286 229.245 100.015 229.684C99.7443 230.113 99.3429 230.454 98.8109 230.706C98.2789 230.958 97.6303 231.084 96.8649 231.084C96.1556 231.084 95.4836 230.972 94.8489 230.748C94.2236 230.515 93.7196 230.207 93.3369 229.824L93.8269 229.026C94.1536 229.362 94.5876 229.637 95.1289 229.852C95.6703 230.057 96.2489 230.16 96.8649 230.16C97.6676 230.16 98.2883 229.987 98.7269 229.642C99.1656 229.287 99.3849 228.802 99.3849 228.186C99.3849 227.579 99.1656 227.103 98.7269 226.758C98.2883 226.413 97.6256 226.24 96.7389 226.24H96.0389V225.498L98.7549 222.096H93.7429V221.2H100.043V221.914L97.2709 225.4ZM105.747 231.084C104.991 231.084 104.315 230.883 103.717 230.482C103.129 230.081 102.667 229.507 102.331 228.76C102.005 228.004 101.841 227.117 101.841 226.1C101.841 225.083 102.005 224.201 102.331 223.454C102.667 222.698 103.129 222.119 103.717 221.718C104.315 221.317 104.991 221.116 105.747 221.116C106.503 221.116 107.175 221.317 107.763 221.718C108.361 222.119 108.827 222.698 109.163 223.454C109.499 224.201 109.667 225.083 109.667 226.1C109.667 227.117 109.499 228.004 109.163 228.76C108.827 229.507 108.361 230.081 107.763 230.482C107.175 230.883 106.503 231.084 105.747 231.084ZM105.747 230.16C106.317 230.16 106.816 230.001 107.245 229.684C107.684 229.367 108.025 228.905 108.267 228.298C108.51 227.691 108.631 226.959 108.631 226.1C108.631 225.241 108.51 224.509 108.267 223.902C108.025 223.295 107.684 222.833 107.245 222.516C106.816 222.199 106.317 222.04 105.747 222.04C105.178 222.04 104.674 222.199 104.235 222.516C103.806 222.833 103.47 223.295 103.227 223.902C102.985 224.509 102.863 225.241 102.863 226.1C102.863 226.959 102.985 227.691 103.227 228.298C103.47 228.905 103.806 229.367 104.235 229.684C104.674 230.001 105.178 230.16 105.747 230.16ZM119.311 221.2C120.562 221.2 121.542 221.499 122.251 222.096C122.96 222.693 123.315 223.515 123.315 224.56C123.315 225.605 122.96 226.427 122.251 227.024C121.542 227.612 120.562 227.906 119.311 227.906H116.679V231H115.643V221.2H119.311ZM119.283 226.996C120.254 226.996 120.996 226.786 121.509 226.366C122.022 225.937 122.279 225.335 122.279 224.56C122.279 223.767 122.022 223.16 121.509 222.74C120.996 222.311 120.254 222.096 119.283 222.096H116.679V226.996H119.283ZM135.733 221.2V231H134.739V223.16L130.889 229.754H130.399L126.549 223.202V231H125.555V221.2H126.409L130.665 228.466L134.879 221.2H135.733Z" fill="#6B8093"/>
</svg>
